<svg width="69" height="75" viewBox="0 0 69 75" fill="none" xmlns="http://www.w3.org/2000/svg">
<path d="M34.1895 7.13293C43.6515 7.13293 52.1884 10.9288 58.3703 17.0606C64.5521 23.1924 68.379 31.7019 68.379 41.0456C68.379 50.3893 64.5521 58.8988 58.3703 65.0306C52.1884 71.1624 43.6095 74.9583 34.1895 74.9583V71.8298C42.7684 71.8298 50.5483 68.3676 56.1414 62.8198C61.7766 57.2303 65.225 49.5551 65.225 41.0456C65.225 32.5362 61.7346 24.8193 56.1414 19.2714C50.5063 13.6819 42.7684 10.2614 34.1895 10.2614V7.13293ZM34.1895 75C24.7275 75 16.1906 71.2041 10.0087 65.0723C3.82687 58.9405 0 50.431 0 41.0873C0 31.7436 3.82687 23.2342 10.0087 17.1023C16.1906 10.9705 24.7695 7.17465 34.1895 7.17465V10.3031C25.6106 10.3031 17.8307 13.7653 12.2376 19.3131C6.64445 24.861 3.15401 32.5779 3.15401 41.0873C3.15401 49.5968 6.64445 57.3137 12.2376 62.8615C17.8727 68.4511 25.6106 71.8715 34.1895 71.8715V75Z" fill="#9043C3"/>
<path d="M34.1896 12.4304C42.1798 12.4304 49.3709 15.6423 54.6276 20.8147C59.8422 25.9871 63.0803 33.1618 63.0803 41.0873C63.0803 49.0127 59.8422 56.1457 54.6276 61.3598C49.413 66.5322 42.1798 69.7441 34.1896 69.7441V67.4082C41.5069 67.4082 48.1513 64.4465 52.9454 59.6913C57.7395 54.936 60.7253 48.3453 60.7253 41.0873C60.7253 33.8292 57.7395 27.2385 52.9454 22.4833C48.1513 17.728 41.5069 14.7663 34.1896 14.7663V12.4304ZM34.1896 69.7441C26.1994 69.7441 19.0083 66.5322 13.7516 61.3598C8.53695 56.1874 5.29883 49.0127 5.29883 41.0873C5.29883 33.1618 8.53695 26.0289 13.7516 20.8147C18.9662 15.6423 26.1994 12.4304 34.1896 12.4304V14.7663C26.8723 14.7663 20.2278 17.728 15.4337 22.4833C10.6396 27.2385 7.69588 33.8292 7.69588 41.0873C7.69588 48.3453 10.6817 54.936 15.4758 59.6913C20.2699 64.4465 26.9143 67.4082 34.2316 67.4082V69.7441H34.1896Z" fill="#9043C3"/>
<path d="M34.1896 17.0605C33.7691 17.0605 33.3906 17.3942 33.3906 17.8531C33.3906 18.2702 33.7271 18.6456 34.1896 18.6456C40.3295 18.6456 45.9226 21.1067 49.9597 25.1112C53.9968 29.1156 56.478 34.6217 56.478 40.7535C56.478 43.6317 55.9313 46.4265 54.8379 49.0544C53.7866 51.6823 52.1885 54.06 50.17 56.1456C49.8756 56.4376 49.8756 56.9382 50.17 57.2302C50.4643 57.5222 50.969 57.5222 51.2634 57.2302C53.4081 55.0194 55.0902 52.4332 56.2257 49.6384C57.3611 46.8436 57.9499 43.8403 57.9499 40.7535C57.9499 34.2046 55.3005 28.3231 50.969 24.0266C46.7636 19.6885 40.792 17.0605 34.1896 17.0605Z" fill="#9043C3"/>
<path d="M35.4087 21.8577C35.4087 21.1903 34.862 20.6897 34.2312 20.6897C33.5584 20.6897 33.0537 21.232 33.0537 21.8577V44.0073C33.0537 44.6747 33.6004 45.1752 34.2312 45.1752C34.9041 45.1752 35.4087 44.633 35.4087 44.0073V21.8577Z" fill="#9043C3"/>
<path d="M47.0578 55.0612C47.5203 55.4783 48.2773 55.4366 48.7399 54.9777C49.1604 54.5189 49.1184 53.7681 48.6558 53.3092L33.7688 39.9611C33.3063 39.5439 32.5493 39.5856 32.0867 40.0445C31.6662 40.5033 31.7082 41.2542 32.1708 41.713L47.0578 55.0612Z" fill="#9043C3"/>
<path d="M35.7877 3.29533C35.7877 2.41936 35.0728 1.75195 34.2318 1.75195C33.3486 1.75195 32.6758 2.46107 32.6758 3.29533V8.46775C32.6758 9.34372 33.3907 10.0111 34.2318 10.0111C35.1149 10.0111 35.7877 9.30201 35.7877 8.46775V3.29533Z" fill="#9043C3"/>
<path d="M13.1628 9.84429C12.7002 9.13517 11.733 8.92661 10.976 9.38545C10.2611 9.84429 10.0508 10.8037 10.5134 11.5545L13.3731 15.851C13.8356 16.5601 14.8029 16.7686 15.5598 16.3098C16.2747 15.851 16.485 14.8916 16.0224 14.1407L13.1628 9.84429Z" fill="#9043C3"/>
<path d="M57.8651 11.5128C58.3277 10.8037 58.1175 9.84426 57.4025 9.3437C56.6876 8.88486 55.7204 9.09342 55.2158 9.80254L52.3982 14.1407C51.9356 14.8498 52.1459 15.8092 52.8608 16.3098C53.5757 16.7686 54.5429 16.56 55.0475 15.8509L57.8651 11.5128Z" fill="#9043C3"/>
<path d="M27.2923 0C26.4092 0 25.7363 0.709121 25.7363 1.54338C25.7363 2.41935 26.4512 3.08676 27.2923 3.08676H41.1279C42.011 3.08676 42.6839 2.37764 42.6839 1.54338C42.6839 0.667408 41.969 0 41.1279 0H27.2923Z" fill="#9043C3"/>
<path d="M11.1023 39.9194C10.4294 39.9194 9.9248 40.4617 9.9248 41.0874C9.9248 41.7548 10.4715 42.2554 11.1023 42.2554H16.3169C16.9898 42.2554 17.4944 41.7131 17.4944 41.0874C17.4944 40.42 16.9477 39.9194 16.3169 39.9194H11.1023Z" fill="#9043C3"/>
<path d="M33.0117 63.9877C33.0117 64.6551 33.5584 65.1557 34.1892 65.1557C34.8621 65.1557 35.3667 64.6134 35.3667 63.9877V58.8153C35.3667 58.1479 34.82 57.6473 34.1892 57.6473C33.5164 57.6473 33.0117 58.1896 33.0117 58.8153V63.9877Z" fill="#9043C3"/>
<path d="M17.0315 56.4378C16.5689 56.8966 16.5689 57.6474 17.0315 58.1063C17.4941 58.5651 18.2511 58.5651 18.7137 58.1063L22.3723 54.4773C22.8349 54.0184 22.8349 53.2676 22.3723 52.8087C21.9097 52.3499 21.1528 52.3499 20.6902 52.8087L17.0315 56.4378Z" fill="#9043C3"/>
<path d="M20.7322 29.3659C21.1947 29.8248 21.9517 29.8248 22.4143 29.3659C22.8769 28.9071 22.8769 28.1563 22.4143 27.6974L18.7556 24.0684C18.2931 23.6095 17.5361 23.6095 17.0735 24.0684C16.6109 24.5272 16.6109 25.2781 17.0735 25.7369L20.7322 29.3659Z" fill="#9043C3"/>
</svg>
