<svg width="95" height="76" viewBox="0 0 95 76" fill="none" xmlns="http://www.w3.org/2000/svg">
<path d="M68.7261 51.6282C69.0408 51.9429 69.1981 52.3625 69.1981 52.7821C69.1981 53.2541 69.0408 53.7261 68.7261 54.0933V58.7086L69.0408 58.3415L68.7261 58.7611V64.6352L70.0373 65.8415L69.9848 65.894C69.6177 66.2611 69.2506 66.5758 68.7786 66.838V64.5828L70.0897 65.7891C71.1911 64.6352 71.6632 63.1142 71.6107 61.6457C71.5583 60.2821 71.0338 58.9709 70.0897 57.9219C70.6142 57.6597 71.0863 57.2926 71.5058 56.873L71.5583 56.8205L70.1946 55.5618L70.1422 55.5093L71.5583 56.8205C72.6597 55.6667 73.1317 54.1457 73.0793 52.6772C73.0268 51.2086 72.3974 49.7401 71.2436 48.6387L68.6737 46.2786V51.6282H68.7261ZM52.2051 30.9639C51.4184 30.2296 50.1597 30.2821 49.4254 31.0688C48.6911 31.8555 48.7436 33.1142 49.5303 33.8485C51.2086 35.4219 54.0408 38.0443 56.7156 40.5093C58.8135 42.4499 60.859 44.338 62.2226 45.5968L68.6212 51.5233C68.6737 51.5758 68.7261 51.6282 68.7261 51.6282V46.2786L64.8974 42.7121C63.4289 41.3485 61.4359 39.5128 59.3904 37.6247C56.6107 35.0548 53.7786 32.4324 52.2051 30.9639ZM68.7261 54.0933V58.7086L68.4114 59.0758L68.4639 59.0233L68.7261 58.7611V64.6352L68.6737 64.5828L68.6212 64.5303L68.7786 64.6352V66.8905C67.9394 67.3625 66.9953 67.6247 66.0513 67.6772C65.4744 67.6772 64.8974 67.6247 64.3205 67.4674C64.0583 68.3065 63.6387 69.0408 63.0093 69.7226C61.9079 70.8765 60.4394 71.5058 58.9709 71.5583C57.6072 71.6107 56.296 71.1912 55.1422 70.2995C54.88 70.8765 54.5128 71.4009 54.0932 71.873L52.6772 70.5618L54.0932 71.9254L54.0408 71.9779C52.9918 73.0268 51.5758 73.6037 50.1597 73.6562C48.6911 73.7086 47.1702 73.1842 46.0163 72.1352L47.3275 70.7191L45.9639 72.1352C45.9114 72.0828 45.859 72.0303 45.8065 71.9779C44.3904 70.824 42.5023 69.2506 40.4044 67.4674C31.7506 60.3345 19.5303 50.1597 19.9499 41.6107L12.0303 34.2156L13.3415 32.7995L11.9779 34.2156C11.1911 33.4814 11.1387 32.2226 11.873 31.4359C11.9254 31.3835 11.9254 31.3835 11.9779 31.331L29.7051 12.345L31.1212 13.6562L29.7051 12.2926C30.4394 11.5058 31.6981 11.4534 32.4848 12.1877C32.5373 12.2401 32.5373 12.2401 32.5897 12.2926C32.9044 12.6072 33.5338 13.1842 35.6317 15.1772C38.2541 17.6422 38.2541 17.5898 38.6737 18.0093C39.4604 18.7436 39.5128 20.0023 38.7786 20.7891C38.0443 21.5758 36.7855 21.6282 35.9988 20.894C33.5862 18.6387 33.5862 18.5863 33.0093 18.0618C32.7995 17.852 32.5373 17.5898 31.2786 16.4359L16.1212 32.6947L23.2016 39.303C23.7261 39.7226 24.0408 40.4569 23.8834 41.1912L21.9429 40.824L23.8834 41.1912C22.6772 47.6947 34.5827 57.6072 42.817 64.4779C44.9674 66.2611 46.8555 67.8345 48.324 69.1981C48.3765 69.2506 48.4289 69.3031 48.4814 69.3031C48.8485 69.6702 49.3205 69.8275 49.7925 69.7751C50.2121 69.7751 50.6841 69.6177 50.9988 69.3031L51.0513 69.2506V69.1981L51.1037 69.1457C51.4184 68.7786 51.5758 68.3065 51.5758 67.8345C51.5758 67.3625 51.366 66.9429 51.0513 66.6282L50.9988 66.5758C50.2646 65.8415 50.2121 64.6352 50.9464 63.8485C51.6807 63.0618 52.9394 63.0093 53.7261 63.7436L53.7786 63.7961L53.831 63.8485L57.3974 67.2051C57.7646 67.5723 58.2366 67.7296 58.7611 67.7296C59.2331 67.7296 59.7051 67.5198 60.0723 67.1527C60.4394 66.7856 60.5967 66.3135 60.5967 65.7891C60.5967 65.317 60.3869 64.845 60.0198 64.4779L62.6946 61.5933L64.5303 63.324C64.8974 63.6912 65.3695 63.8485 65.8939 63.8485C66.366 63.8485 66.7855 63.6387 67.1002 63.324V63.2716L67.1527 63.2191C67.4674 62.852 67.6247 62.38 67.6247 61.9079C67.6247 61.4359 67.4149 61.0163 67.1002 60.7016L67.0478 60.6492L63.4289 57.2926L64.6876 55.9289L63.4289 57.2926L63.3765 57.2401V57.1877V57.1352V57.0828V57.0303V56.9779V56.9254V56.873V56.8205V56.7681V56.7156V56.6632C63.3765 56.6107 63.3765 56.6107 63.3765 56.5583V56.5058C63.3765 56.4534 63.3765 56.4534 63.3765 56.4009C63.3765 56.3485 63.3765 56.3485 63.3765 56.2961C63.3765 56.2436 63.3765 56.2436 63.3765 56.1912V56.1387V56.0863V56.0338V55.9814V55.9289V55.8765V55.824V55.7716V55.7191V55.6667V55.6142V55.5618V55.5093V55.4569V55.4044V55.352V55.2995V55.2471V55.1947V55.1422V55.0898C63.4814 54.88 63.5862 54.7226 63.7436 54.5653C63.7436 54.5653 63.7436 54.5653 63.796 54.5128H63.8485H63.9009H63.9534H64.0058H64.0583H64.1107H64.1632H64.2156H64.2681C64.3205 54.5128 64.373 54.4604 64.4254 54.4604H64.4779C64.5303 54.4604 64.5303 54.4604 64.5828 54.4604C64.6352 54.4604 64.6876 54.4604 64.7401 54.4079C64.7925 54.4079 64.7925 54.4079 64.845 54.4079C64.8974 54.4079 64.8974 54.4079 64.9499 54.4079H65.0023H65.0548H65.1072H65.1597H65.2121H65.2646H65.317H65.3695H65.4219H65.4744H65.5268H65.5793H65.6317H65.6841H65.7366H65.789H65.8415H65.8939H65.9464C65.9988 54.4604 66.0513 54.4604 66.1037 54.5128H66.1562L66.2086 54.5653L66.2611 54.6177H66.3135L66.366 54.6702C66.7331 54.9849 67.2051 55.1422 67.6772 55.1422C68.1492 55.1422 68.5688 54.9324 68.8835 54.6177L68.7261 54.0933Z" fill="#9043C3"/>
<path d="M52.2572 51.8904C51.4705 51.1562 50.2117 51.2086 49.4775 51.9953C48.7432 52.782 48.7956 54.0408 49.5823 54.775L60.8586 65.317C61.6453 66.0512 62.904 65.9988 63.6383 65.2121C64.3726 64.4254 64.3201 63.1666 63.5334 62.4324L52.2572 51.8904Z" fill="#9043C3"/>
<path d="M42.0306 52.782C41.2439 52.0478 39.9852 52.1002 39.2509 52.8869C38.5166 53.6736 38.5691 54.9324 39.3558 55.6666L53.674 69.0408C54.4607 69.775 55.7194 69.7226 56.4537 68.9359C57.1879 68.1491 57.1355 66.8904 56.3488 66.1561L42.0306 52.782Z" fill="#9043C3"/>
<path d="M54.8802 43.866C54.0935 43.1317 52.8348 43.1842 52.1005 43.9709C51.3662 44.7576 51.4187 46.0164 52.2054 46.7506L66.104 59.7052C66.8907 60.4394 68.1494 60.387 68.8837 59.6003C69.618 58.8136 69.5655 57.5548 68.7788 56.8205L54.8802 43.866Z" fill="#9043C3"/>
<path d="M35.6316 72.0303C35.8414 71.8729 36.1036 71.7156 36.3134 71.5582C36.5756 72.1352 36.9428 72.6596 37.3624 73.1841L38.7784 71.8729L37.3624 73.2366C37.4148 73.289 37.4673 73.3415 37.5197 73.3939C38.5686 74.4429 39.9847 75.0198 41.3484 75.0722L41.4008 73.1317L41.3484 75.0722C41.4008 75.0722 41.5057 75.0722 41.5582 75.0722C42.9742 75.0722 44.3903 74.5478 45.4917 73.5513L44.1805 72.1352L45.5442 73.5513C45.5966 73.4988 45.6491 73.4464 45.7015 73.3939C45.9113 73.1841 46.1735 72.9743 46.4882 72.7121C46.7505 72.5023 47.1176 72.1876 47.5896 71.768C48.4288 71.0862 48.5337 69.8275 47.8519 68.9883C47.17 68.1492 45.9113 68.0443 45.0721 68.7261C44.7575 68.9883 44.3379 69.303 43.9183 69.7226C43.6561 69.9848 43.3414 70.2471 43.0267 70.5093C42.9742 70.5617 42.9218 70.6142 42.8693 70.6142C42.5022 70.9289 42.0826 71.0862 41.6631 71.0862C41.6106 71.0862 41.6106 71.0862 41.5582 71.0862C41.1386 71.0862 40.6666 70.9289 40.3519 70.6142C40.2994 70.5617 40.2994 70.5617 40.247 70.5093C39.9847 70.2471 39.8274 69.9324 39.7749 69.6177C39.7225 69.2505 39.7225 68.9359 39.8274 68.5687C39.8798 68.4114 39.9323 68.254 39.9847 68.1492C40.4043 66.9953 40.6141 66.4708 39.5127 65.5792C38.0966 64.3729 37.5721 64.8974 36.6281 65.8939C36.5756 65.9464 36.4707 66.0513 36.261 66.2086L35.5791 66.838V70.1946L35.8938 70.5617L35.5791 70.1946V72.0303H35.6316ZM67.7295 48.1666C67.1001 49.0582 67.2575 50.2645 68.1491 50.8939C69.0407 51.5233 70.247 51.3659 70.8764 50.4743C72.0826 48.8485 73.0267 47.1701 73.6561 45.5443C74.1805 44.1806 74.3903 42.8694 74.3903 41.5582L82.3099 34.1631L80.9987 32.7471L82.3624 34.1631C83.1491 33.4289 83.2015 32.1701 82.4673 31.3834C82.4148 31.331 82.4148 31.331 82.3624 31.2785L64.6351 12.2925L63.219 13.6037L64.6351 12.2401C63.9008 11.4533 62.6421 11.4009 61.8554 12.1352C61.8029 12.1876 61.8029 12.1876 61.7505 12.2401C61.4358 12.5547 60.8064 13.1317 58.7085 15.1247C56.0861 17.5897 56.0861 17.5373 55.6666 17.9568C54.8798 18.6911 54.8274 19.9499 55.5617 20.7366C56.2959 21.5233 57.5547 21.5757 58.3414 20.8415C60.754 18.5862 60.754 18.5338 61.3309 18.0093C61.5407 17.7995 61.8029 17.5373 63.0617 16.3834L78.1666 32.5897L71.0861 39.1981C70.5617 39.6177 70.247 40.352 70.4043 41.0862L72.3449 40.7191L70.4043 41.0862C70.5617 41.9778 70.4043 42.9743 69.9847 44.0757C69.5652 45.4394 68.7784 46.7506 67.7295 48.1666ZM25.247 50.4219C26.0337 49.6876 26.0337 48.4289 25.2994 47.6422C24.5652 46.8554 23.3064 46.8554 22.5197 47.5897L20.1071 49.9499C18.9533 51.0513 18.3763 52.5198 18.3239 53.9883C18.2714 55.4568 18.7959 56.9254 19.8449 58.0792C20.3169 58.5513 20.7889 58.9708 21.3659 59.2331C20.4218 60.282 19.8973 61.5932 19.8449 62.9568C19.7924 64.4254 20.3169 65.9464 21.3659 67.1002L22.7819 65.789L22.7295 65.8415L21.3659 67.1002L21.4183 67.1526H21.4707L21.5232 67.2051C22.5721 68.3065 23.9882 68.8834 25.4568 68.9359C26.0337 68.9359 26.6106 68.8834 27.1875 68.7261C27.4498 69.5652 27.8693 70.2995 28.4987 70.9813L29.9148 69.6701L29.8624 69.7226L28.4987 70.9813L28.5512 71.0338H28.6036L28.6561 71.0862C29.7575 72.1876 31.1735 72.7645 32.5896 72.7645C33.691 72.817 34.74 72.5547 35.7365 71.9778V70.1422L35.4218 69.775L35.4742 69.8275L35.7365 70.0897V66.7331L34.1631 68.2016L34.1106 68.2541C33.7435 68.5687 33.2714 68.7261 32.7994 68.7261C32.3798 68.7261 31.9078 68.5163 31.5931 68.2016L31.5407 68.1492C31.226 67.8345 31.1211 67.4149 31.0687 66.9953C31.0687 66.5233 31.226 66.1037 31.4882 65.7366C31.4882 65.7366 31.698 65.5268 31.9078 65.317C32.0652 65.1596 32.2749 64.9499 32.4323 64.7925L32.5896 64.6352L32.6421 64.5827C33.4288 63.796 33.4288 62.5897 32.6421 61.803C31.8554 61.0163 30.6491 61.0163 29.8624 61.803C29.8099 61.8554 29.705 61.9603 29.6001 62.0652L28.761 62.9044L28.7085 62.9568L27.24 64.3205L27.1875 64.3729C26.8204 64.6876 26.3484 64.845 25.8763 64.845C25.4043 64.845 24.9847 64.6352 24.67 64.3205L24.6176 64.268C24.3029 63.9009 24.1456 63.4289 24.1456 62.9568C24.1456 62.4848 24.3554 62.0128 24.7225 61.6457L28.3938 58.2366L25.719 55.352C25.3519 55.7191 24.8798 55.8764 24.3554 55.8764C23.8833 55.8764 23.4113 55.6666 23.0442 55.2995C22.677 54.9324 22.5197 54.4603 22.5721 53.9883C22.5721 53.5163 22.7819 52.9918 23.2015 52.6247L25.247 50.4219Z" fill="#9043C3"/>
<path d="M51.4713 31.7506C52.258 32.5373 53.4643 32.5373 54.251 31.7506C55.0377 30.9639 55.0377 29.7576 54.251 28.9709C52.8874 27.6073 50.1077 26.5583 47.2755 26.2436C44.7056 25.9289 41.9783 26.1912 40.1951 27.2926C38.6216 28.2891 37.1531 28.7087 35.8419 28.8136C34.4783 28.9184 33.4818 28.6038 33.0622 28.2366C33.0622 28.1842 33.0622 28.1317 33.1147 27.9744C33.272 27.5024 33.6391 26.9254 34.3734 26.2436C34.6356 25.9814 34.9503 25.7191 35.3175 25.4569C36.5762 24.4604 37.6251 23.7261 38.7265 23.2541C39.8279 22.7821 41.0867 22.4674 42.9748 22.3625C44.1811 22.2576 45.5447 22.415 46.9084 22.5723C50.0552 22.887 53.5168 23.2017 57.3979 21.6807C58.3944 21.2611 58.8664 20.1597 58.4993 19.1108C58.0797 18.1143 56.9783 17.6422 55.9293 18.0094C52.9923 19.2156 50.0028 18.901 47.2755 18.6387C45.7021 18.4814 44.1811 18.324 42.7126 18.4289C40.3524 18.5863 38.6741 19.0059 37.1531 19.6352C35.6846 20.317 34.4783 21.1562 32.9573 22.3101C32.4853 22.6772 32.0657 23.0443 31.6986 23.359C30.4398 24.5653 29.7056 25.7716 29.3909 26.873C28.9713 28.2891 29.2335 29.5478 30.0203 30.5968C30.1251 30.7017 30.23 30.8066 30.2825 30.9115C31.3839 32.0653 33.5342 32.852 36.1042 32.6947C37.9923 32.5898 40.1426 31.9604 42.293 30.5968C43.237 30.0198 44.9678 29.915 46.751 30.1247C48.7965 30.387 50.737 31.0163 51.4713 31.7506Z" fill="#9043C3"/>
<path d="M41.2959 66.7855C42.0826 65.9988 42.0826 64.7925 41.2959 64.0058C40.5092 63.2191 39.3029 63.2191 38.5162 64.0058L35.3693 67.1002C34.5826 67.8869 34.5826 69.0932 35.3693 69.8799C36.156 70.6666 37.3623 70.6666 38.149 69.8799L41.2959 66.7855Z" fill="#9043C3"/>
<path d="M35.2647 61.8555C36.0514 61.0688 36.0514 59.8625 35.2647 59.0758C34.4779 58.289 33.2716 58.289 32.4849 59.0758L29.3381 62.1702C28.5514 62.9569 28.5514 64.1632 29.3381 64.9499C30.1248 65.7366 31.3311 65.7366 32.1178 64.9499L35.2647 61.8555Z" fill="#9043C3"/>
<path d="M29.967 56.6631C30.8062 55.9288 30.8586 54.7225 30.1768 53.8834C29.4425 53.0442 28.2362 52.9918 27.3971 53.6736L25.0369 55.719C24.1978 56.4533 24.1453 57.6596 24.8271 58.4988C25.5614 59.3379 26.7677 59.3904 27.6069 58.7085L29.967 56.6631Z" fill="#9043C3"/>
<path d="M93.6915 28.0268C94.4782 27.2925 94.5306 26.0338 93.7439 25.2471C93.0097 24.4604 91.7509 24.4079 90.9642 25.1946L86.9258 29.0233L68.0971 8.7261L72.7125 4.37295C73.4992 3.63869 73.5516 2.37995 72.7649 1.59323C72.0306 0.806519 70.7719 0.754071 69.9852 1.54078L64.1111 7.15267C64.0586 7.15267 64.0586 7.20512 64.0062 7.20512C63.2195 7.93938 63.167 9.19813 63.9013 9.98484L65.3174 8.67365L63.9013 9.98484L85.3523 33.0618C85.4048 33.1142 85.4048 33.1667 85.4572 33.1667C86.1915 33.9534 87.4502 34.0058 88.2369 33.2191L86.8733 31.803L88.2369 33.2191L93.6915 28.0268Z" fill="#9043C3"/>
<path d="M3.32403 24.2506C2.53732 23.5163 1.27858 23.5163 0.544313 24.3031C-0.189953 25.0898 -0.189953 26.3485 0.596761 27.0828L6.05131 32.2751L7.41494 30.859L6.05131 32.2751C6.83802 33.0093 8.09676 33.0093 8.83103 32.2226C8.88347 32.1702 8.88347 32.1702 8.93592 32.1177L30.387 9.04082L28.9709 7.72963L30.387 9.04082C31.1212 8.2541 31.0688 6.99536 30.2821 6.2611C30.2296 6.20865 30.2296 6.20865 30.1772 6.20865L24.3031 0.544313C23.5163 -0.189953 22.2576 -0.189953 21.5233 0.596761C20.7891 1.38347 20.7891 2.64222 21.5758 3.37648L26.1912 7.72963L7.3625 28.0793L3.32403 24.2506Z" fill="#9043C3"/>
</svg>
