<svg width="77" height="80" viewBox="0 0 77 80" fill="none" xmlns="http://www.w3.org/2000/svg">
<path d="M36.8839 57.0133H19.3639L16.4 42.8525L10.5381 44.3015L11.4602 72.8208H36.8839C34.9079 70.4497 34.0517 66.893 33.5906 62.9411H36.8839V57.0133Z" fill="#61C4F2"/>
<path d="M0.987967 73.4794C0.461051 73.4794 0 73.0184 0 72.4915V59.0551V58.9892C1.05383 45.2894 11.0652 41.9304 16.7954 42.1938C17.3223 42.1938 17.7834 42.6549 17.7175 43.2476C17.7175 43.7746 17.2565 44.2356 16.6637 44.1697C15.3464 44.1039 3.09563 44.1039 1.97593 59.0551V72.4915C1.97593 73.0184 1.51488 73.4794 0.987967 73.4794Z" fill="#263357"/>
<path d="M11.5266 73.0842C10.9997 73.0842 10.5386 72.689 10.5386 72.1621L9.41895 45.3553C9.41895 44.8284 9.81413 44.3673 10.341 44.3015C10.868 44.3015 11.329 44.6966 11.3949 45.2236L12.5146 72.0304C12.5804 72.5573 12.1194 73.0183 11.5266 73.0842C11.5925 73.0842 11.5925 73.0842 11.5266 73.0842Z" fill="#263357"/>
<path d="M35.8963 58.3306H19.035C18.574 58.3306 18.1129 58.0013 18.0471 57.4744L15.8735 43.0501C15.8077 42.5232 16.137 41.9962 16.7298 41.9304C17.2567 41.8645 17.7836 42.1938 17.8495 42.7866L19.8913 56.3547H35.8963C36.4232 56.3547 36.8843 56.8157 36.8843 57.3426C36.8843 57.8696 36.4232 58.3306 35.8963 58.3306Z" fill="#263357"/>
<path d="M43.9971 21.1831C43.7336 21.1831 43.4702 21.1172 43.2726 20.9196C42.8774 20.5244 42.8774 19.9316 43.2726 19.5364C44.8533 17.9557 44.524 17.0336 44.063 15.6504C43.7336 14.6625 43.4043 13.6087 43.6678 12.2914C44.063 10.3813 42.9433 9.65678 41.3625 8.80055L41.2967 8.73468C40.4404 8.27363 39.9135 7.41739 39.4525 6.56116C38.7938 5.44146 38.2669 4.51936 36.9496 4.2559C34.5785 3.79485 33.9857 3.39966 33.1295 2.80688C32.9977 2.67515 32.8001 2.54343 32.5367 2.4117C31.4829 1.68719 27.8603 2.34583 27.1358 3.00448C27.0041 3.46553 26.6089 3.72899 26.1478 3.72899C25.6868 3.72899 25.2916 3.66312 24.7647 3.59726C23.9743 3.46553 23.0522 3.3338 22.5253 3.59726C21.9984 3.86071 21.5373 4.38763 21.0763 4.84868C20.4835 5.50733 19.8907 6.16597 19.1003 6.1001C18.0465 6.1001 16.7292 6.89048 16.7292 7.81258C16.7292 9.32746 16.7292 11.6986 15.1485 11.6986C14.1605 11.6986 13.9629 12.0938 13.436 13.8062C13.3701 14.0038 13.3043 14.2673 13.2384 14.4649C12.9091 15.387 12.5139 17.7581 15.5437 19.0095C16.0706 19.2071 16.2682 19.7999 16.0706 20.261C15.873 20.7879 15.2802 20.9855 14.8192 20.7879C11.0649 19.273 10.6038 16.1115 11.3942 13.8062C11.4601 13.6087 11.5259 13.4111 11.5918 13.1476C11.987 11.7644 12.5798 9.92024 14.6874 9.65679C14.7533 9.39333 14.8192 8.80055 14.8192 7.74672C14.8192 5.63905 16.9927 4.12417 19.0345 4.05831C19.1662 3.92658 19.4297 3.66312 19.6931 3.39966C20.22 2.80688 20.8787 2.08237 21.7349 1.68719C22.7887 1.16027 24.0402 1.35787 25.094 1.48959C25.2916 1.48959 25.4233 1.55546 25.6209 1.55546C25.8185 1.35787 26.082 1.16027 26.4113 0.962679C28.1238 0.040577 31.9439 -0.486338 33.5905 0.633357C33.854 0.83095 34.0516 0.962679 34.2492 1.09441C34.9078 1.55546 35.2371 1.81892 37.2789 2.2141C39.4524 2.67515 40.3746 4.32177 41.0991 5.50733C41.4284 6.10011 41.8236 6.69288 42.1529 6.89048L42.2188 6.95634C43.536 7.61499 46.2365 9.064 45.512 12.5548C45.3802 13.3452 45.5778 14.0697 45.8413 14.9259C46.3682 16.4408 47.0269 18.4168 44.524 20.8537C44.524 21.1172 44.2606 21.1831 43.9971 21.1831Z" fill="#263357"/>
<path d="M33.7229 21.4465C33.5911 21.4465 33.5253 21.4465 33.3935 21.3807C29.5075 20.0634 28.1903 15.7163 28.1244 15.5187C27.9927 14.9918 28.2561 14.4649 28.783 14.2673C29.3099 14.1356 29.8369 14.399 30.0345 14.9259C30.0345 14.9918 31.0883 18.4826 33.9863 19.4706C34.5132 19.6682 34.7767 20.1951 34.5791 20.722C34.5132 21.1831 34.1839 21.4465 33.7229 21.4465Z" fill="#263357"/>
<path d="M42.9438 21.4465C42.4168 21.4465 41.9558 20.9855 41.9558 20.4585C41.9558 18.9437 40.1774 17.1653 39.4529 16.6384C39.0578 16.3091 38.9919 15.6504 39.3212 15.2553C39.6505 14.8601 40.3092 14.7283 40.7044 15.1235C41.0337 15.387 43.9317 17.824 43.9317 20.5244C43.9317 21.0513 43.4707 21.4465 42.9438 21.4465Z" fill="#263357"/>
<path d="M74.7559 63.5998H31.944C31.4171 63.5998 30.9561 63.1387 30.9561 62.6118C30.9561 62.0849 31.4171 61.6238 31.944 61.6238H74.7559C75.2828 61.6238 75.7439 62.0849 75.7439 62.6118C75.7439 63.1387 75.2828 63.5998 74.7559 63.5998Z" fill="#263357"/>
<path d="M52.9554 80C41.8902 80 32.9326 73.0184 32.9326 64.456V62.6118C32.9326 62.0849 33.3937 61.6238 33.9206 61.6238C34.4475 61.6238 34.9086 62.0849 34.9086 62.6118V64.456C34.9086 71.8987 43.0099 78.0241 52.9554 78.0241C61.9788 78.0241 69.685 72.9525 70.8705 66.2344C70.9364 65.7074 71.4633 65.3123 71.9902 65.444C72.5171 65.5098 72.9123 66.0368 72.7806 66.5637C71.4633 74.2039 62.9668 80 52.9554 80Z" fill="#263357"/>
<path d="M50.3864 62.2825C49.8595 62.2825 49.3984 61.8214 49.3984 61.2945V49.9658C49.3984 46.2116 52.4282 43.1818 56.1825 43.1818H57.7632C61.5175 43.1818 64.5473 46.2116 64.5473 49.9658V52.7321C64.5473 53.2591 64.0862 53.7201 63.5593 53.7201C63.0324 53.7201 62.5713 53.2591 62.5713 52.7321V49.9658C62.5713 47.3313 60.3978 45.1577 57.7632 45.1577H56.1825C53.5479 45.1577 51.3744 47.3313 51.3744 49.9658V61.2945C51.3744 61.8214 50.9133 62.2825 50.3864 62.2825Z" fill="#263357"/>
<path d="M42.4821 63.5998C41.9552 63.5998 41.4941 63.1387 41.4941 62.6118V58.0013C41.4941 57.4744 41.9552 57.0133 42.4821 57.0133C43.009 57.0133 43.4701 57.4744 43.4701 58.0013V62.6118C43.4701 63.1387 43.009 63.5998 42.4821 63.5998Z" fill="#263357"/>
<path d="M45.7761 58.3306H39.8483C39.3214 58.3306 38.8604 57.8696 38.8604 57.3426C38.8604 56.8157 39.3214 56.3547 39.8483 56.3547H45.7761C46.303 56.3547 46.7641 56.8157 46.7641 57.3426C46.7641 57.8696 46.303 58.3306 45.7761 58.3306Z" fill="#263357"/>
<path d="M58.2897 63.5998C57.7628 63.5998 57.3018 63.1387 57.3018 62.6118V58.0013C57.3018 57.4744 57.7628 57.0133 58.2897 57.0133C58.8166 57.0133 59.2777 57.4744 59.2777 58.0013V62.6118C59.2777 63.1387 58.8166 63.5998 58.2897 63.5998Z" fill="#263357"/>
<path d="M60.9246 58.3306H54.9968C54.4698 58.3306 54.0088 57.8696 54.0088 57.3426C54.0088 56.8157 54.4698 56.3547 54.9968 56.3547H60.9246C61.4515 56.3547 61.9125 56.8157 61.9125 57.3426C61.9125 57.8696 61.4515 58.3306 60.9246 58.3306Z" fill="#263357"/>
<path d="M53.5482 14.2673L51.3747 18.4826C49.5963 21.9734 53.3506 27.5061 53.3506 27.5061L52.2968 29.5479C51.3747 31.3262 52.0992 33.4997 53.8117 34.4218L54.9972 35.0146C56.7756 35.9367 58.9491 35.2122 59.8712 33.4997L60.9909 31.3921C64.2182 32.4459 67.8408 31.0627 69.4874 27.9012L71.6609 23.6859L53.5482 14.2673Z" fill="#9043C3"/>
<path d="M63.2296 32.7094C62.3733 32.7094 61.5171 32.5776 60.7267 32.3142C60.1998 32.1166 59.9363 31.5897 60.0681 31.0627C60.2657 30.5358 60.7926 30.2724 61.3195 30.4041C64.1517 31.3262 67.2473 30.0748 68.6304 27.4402L70.3429 24.0811L54.0085 15.5846L52.2961 18.9437C51.5716 20.3927 51.374 22.0393 51.9009 23.6201C52.3619 25.2008 53.4816 26.4522 54.9306 27.1767L56.5773 28.033C57.0383 28.2964 57.2359 28.8892 56.9724 29.3503C56.709 29.8113 56.1162 30.0089 55.6551 29.7455L54.0085 28.8892C52.0985 27.9012 50.6495 26.1888 50.0567 24.147C49.398 22.1052 49.5956 19.8658 50.5836 17.9557L52.7571 13.7404C52.8888 13.4769 53.0864 13.3452 53.3499 13.2793C53.6134 13.2135 53.8768 13.2135 54.0744 13.3452L72.1871 22.7638C72.6482 23.0273 72.8458 23.6201 72.5823 24.0811L70.4088 28.2964C68.9598 31.1286 66.1935 32.7094 63.2296 32.7094Z" fill="#263357"/>
<path d="M56.7094 36.4636C55.9848 36.4636 55.2603 36.266 54.6017 35.9367L53.4161 35.3439C51.1767 34.1583 50.2546 31.392 51.4402 29.1526L52.494 27.1108C52.7575 26.6498 53.3503 26.4522 53.8113 26.7157C54.2724 26.9791 54.47 27.5719 54.2065 28.0329L53.1527 30.0747C52.494 31.392 52.9551 32.9728 54.2724 33.6314L55.4579 34.2242C56.7752 34.8829 58.356 34.4218 59.0146 33.1045L60.0684 31.0627C60.3319 30.6017 60.9247 30.4041 61.3857 30.6675C61.8468 30.931 62.0444 31.5238 61.7809 31.9848L60.7271 34.0266C60.0026 35.5415 58.356 36.4636 56.7094 36.4636Z" fill="#263357"/>
<path d="M43.8002 51.7442C43.6684 51.7442 43.4708 51.6783 43.3391 51.6124C42.8781 51.349 42.6805 50.7562 42.8781 50.2952L51.5063 33.2363C51.7698 32.7752 52.3625 32.5776 52.8236 32.7752C53.2846 33.0387 53.4822 33.6314 53.2846 34.0925L44.6564 51.2173C44.5247 51.5466 44.1295 51.7442 43.8002 51.7442Z" fill="#263357"/>
<path d="M54.3383 41.2058C54.2066 41.2058 54.0748 41.2058 53.8772 41.0741C53.4162 40.8107 53.1527 40.2179 53.4162 39.7568L55.5897 35.3439C55.8532 34.8829 56.446 34.6194 56.907 34.8829C57.3681 35.1463 57.6315 35.7391 57.3681 36.2001L55.1945 40.6131C55.0628 41.0082 54.7335 41.2058 54.3383 41.2058Z" fill="#263357"/>
<path d="M73.1752 25.2008C72.7141 25.2008 72.2531 25.0691 71.792 24.8715L52.5596 14.8601C51.1106 14.1356 50.5178 12.2914 51.3082 10.8423C52.0327 9.39333 53.8769 8.80055 55.3259 9.59092L74.6242 19.6023C76.0732 20.3268 76.666 22.171 75.8756 23.62C75.2829 24.608 74.229 25.2008 73.1752 25.2008ZM53.8769 11.2375C53.7452 11.2375 53.6793 11.2375 53.5476 11.3034C53.2841 11.3693 53.0865 11.5669 52.9548 11.7644C52.6914 12.2255 52.8889 12.8183 53.35 13.0817L72.7141 23.0931C73.1752 23.3566 73.768 23.159 74.0314 22.6979C74.2949 22.2369 74.0973 21.6441 73.6362 21.3807L54.338 11.3034C54.2062 11.2375 54.0745 11.2375 53.8769 11.2375Z" fill="#263357"/>
<path d="M41.2309 24.3446C41.165 24.3446 41.0992 24.3446 40.9674 24.3446C40.1112 24.147 39.0574 23.6859 37.8718 23.159C35.5665 22.171 32.7344 20.9196 30.2974 20.9196C27.07 20.9196 23.5134 20.9196 20.8788 18.3509C20.4836 20.3927 19.4298 22.1052 18.2442 23.0273C17.9149 23.2907 17.5197 23.3566 17.0586 23.2907C16.0048 23.0273 15.1486 21.5124 14.5558 20.261C14.3582 19.7341 14.5558 19.2071 15.0168 18.9437C15.5438 18.6802 16.0707 18.9437 16.3341 19.4047C16.6634 20.0634 17.0586 20.7879 17.388 21.1172C18.5735 19.9317 19.3639 17.6923 18.9687 15.5187C18.9028 15.0577 19.1663 14.5308 19.6273 14.399C20.0884 14.2673 20.6153 14.4649 20.8129 14.8601C22.8547 18.9437 26.2797 18.9437 30.2974 18.9437C33.1954 18.9437 36.2252 20.261 38.6622 21.3148C39.5184 21.71 40.2429 22.0393 40.8357 22.2369C41.4285 21.3807 41.6261 20.3927 41.6261 20.3927C41.6919 19.8658 42.2189 19.4706 42.7458 19.6023C43.2727 19.6682 43.6679 20.1951 43.5361 20.722C43.5361 20.7879 43.2068 22.7638 41.8237 24.0811C41.7578 24.2128 41.4943 24.3446 41.2309 24.3446Z" fill="#263357"/>
<path d="M16.4001 28.9551C15.939 28.9551 15.5438 28.6257 15.4121 28.1647C15.4121 28.0988 15.2145 28.033 15.0828 27.9012C14.49 27.506 13.5679 26.8474 13.1068 24.9373C12.3823 21.9734 13.1727 20.722 13.9631 20.1951C14.7535 19.6682 15.8073 19.6682 16.5977 20.261C17.0587 20.5903 17.1246 21.1831 16.8611 21.6441C16.5318 22.1052 15.939 22.171 15.478 21.9076C15.478 21.7758 15.2804 21.71 15.1486 21.7758C14.9511 21.9076 14.6217 22.5662 15.0828 24.4104C15.3462 25.596 15.8073 25.9253 16.2683 26.2546C16.6635 26.5181 17.1904 26.9133 17.388 27.7695C17.5198 28.2964 17.1246 28.8233 16.5977 28.9551C16.5318 28.9551 16.4659 28.9551 16.4001 28.9551Z" fill="#263357"/>
<path d="M42.2854 28.9551C42.2195 28.9551 42.1537 28.9551 42.0878 28.9551C41.5609 28.8233 41.2315 28.3623 41.2974 27.8354C41.4291 26.9791 42.0219 26.6498 42.4171 26.3205C42.8782 25.9912 43.2733 25.7277 43.6027 24.4763C44.0637 22.6321 43.6685 21.9076 43.5368 21.8417C43.4051 21.7758 43.2733 21.8417 43.1416 21.9076C42.6806 22.2369 42.0878 22.1052 41.7585 21.6441C41.4291 21.1831 41.5609 20.5903 42.0219 20.261C42.8782 19.6682 43.932 19.6682 44.6565 20.1951C45.4469 20.722 46.2372 21.9734 45.5127 24.9373C45.0517 26.8474 44.1296 27.506 43.5368 27.9012C43.4051 27.9671 43.2733 28.0988 43.2075 28.1647C43.2075 28.6257 42.7464 28.9551 42.2854 28.9551Z" fill="#263357"/>
<path d="M29.3754 43.1159C22.5914 43.1159 16.7295 36.7929 15.478 28.0988C15.4122 27.5719 15.7415 27.045 16.3343 26.9791C16.8612 26.9132 17.3881 27.2426 17.454 27.8353C18.6395 35.5415 23.6452 41.14 29.4413 41.14C35.2374 41.14 40.2431 35.5415 41.4286 27.8353C41.4945 27.3084 42.0214 26.9132 42.5483 26.9791C43.0752 27.045 43.4704 27.5719 43.4046 28.0988C41.9555 36.7929 36.0936 43.1159 29.3754 43.1159Z" fill="#263357"/>
<path d="M26.0161 28.033H23.3815C22.8546 28.033 22.3936 27.5719 22.3936 27.045C22.3936 26.5181 22.8546 26.057 23.3815 26.057H26.0161C26.543 26.057 27.0041 26.5181 27.0041 27.045C27.0041 27.5719 26.543 28.033 26.0161 28.033Z" fill="#263357"/>
<path d="M35.896 28.033H33.2614C32.7345 28.033 32.2734 27.5719 32.2734 27.045C32.2734 26.5181 32.7345 26.057 33.2614 26.057H35.896C36.4229 26.057 36.8839 26.5181 36.8839 27.045C36.8839 27.5719 36.4229 28.033 35.896 28.033Z" fill="#263357"/>
<path d="M29.3753 37.9785C27.9921 37.9785 26.6089 37.4516 25.3575 36.5295C24.8965 36.2001 24.8306 35.6074 25.1599 35.1463C25.4893 34.6853 26.082 34.6194 26.5431 34.9487C28.3873 36.3319 30.2974 36.3319 32.1416 34.9487C32.6026 34.6194 33.1954 34.6853 33.5247 35.1463C33.854 35.6074 33.7882 36.2001 33.3271 36.5295C32.0757 37.4516 30.6925 37.9785 29.3753 37.9785Z" fill="#263357"/>
</svg>
