<svg width="46" height="40" viewBox="0 0 46 40" fill="none" xmlns="http://www.w3.org/2000/svg">
<path d="M37.8585 30.0837C37.3828 28.8979 37.1428 27.6479 37.1428 26.37V17.1429C37.1428 10.7422 32.8828 5.37482 27.07 3.56396C26.7245 1.5449 24.9734 0 22.8572 0C20.741 0 18.9898 1.5449 18.6444 3.56396C12.8316 5.37482 8.57154 10.7422 8.57154 17.1429V26.37C8.57154 27.6479 8.33157 28.8979 7.85586 30.0837L5.81617 35.1841C5.64034 35.625 5.69479 36.1216 5.95982 36.515C6.22629 36.9085 6.66849 37.1428 7.14286 37.1428H18.0024C19.0153 38.8644 20.8219 40 22.8572 40C24.8924 40 26.6991 38.8644 27.7119 37.1428H38.5714C39.0458 37.1428 39.488 36.9085 39.7544 36.515C40.0195 36.1216 40.0739 35.625 39.8981 35.1841C39.8982 35.1841 37.8585 30.0837 37.8585 30.0837ZM9.25226 34.2857L10.5092 31.1439C11.1189 29.6205 11.4286 28.0134 11.4286 26.3699V17.1428C11.4286 10.8398 16.5555 5.7142 22.8572 5.7142C29.1589 5.7142 34.2857 10.8398 34.2857 17.1428V26.3699C34.2857 28.0133 34.5954 29.6205 35.205 31.1439L36.462 34.2857H9.25226Z" fill="#252525"/>
<path d="M2.69112 9.2439C0.930487 12.5419 0 16.2612 0 20C0 23.7389 0.930487 27.4582 2.69112 30.7562L5.21064 29.4113C3.64955 26.4845 2.85715 23.3176 2.85715 20C2.85715 16.6825 3.64955 13.5157 5.21064 10.5887L2.69112 9.2439Z" fill="#252525"/>
<path d="M43.0234 9.2439L40.5039 10.5887C42.065 13.5156 42.8574 16.6824 42.8574 20C42.8574 23.3175 42.065 26.4844 40.5039 29.4113L43.0234 30.7562C44.7841 27.4582 45.7146 23.7389 45.7146 20C45.7146 16.2613 44.7841 12.5419 43.0234 9.2439Z" fill="#252525"/>
</svg>
