<svg width="80" height="80" viewBox="0 0 80 80" fill="none" xmlns="http://www.w3.org/2000/svg">
<path d="M58.7101 76.7848H36.2679C35.239 76.7848 34.2745 76.2703 33.6957 75.4344C33.0527 74.5984 32.9241 73.5053 33.2456 72.5407C33.6957 71.2546 34.9175 70.3543 36.3322 70.3543H58.7745C59.8033 70.3543 60.7679 70.8688 61.3466 71.7047C61.9897 72.5407 62.1183 73.6339 61.7968 74.5984C61.4109 75.9488 60.1248 76.7848 58.7101 76.7848ZM36.3322 72.2835C35.7535 72.2835 35.239 72.605 35.0461 73.1194C34.8532 73.6982 35.0461 74.084 35.239 74.3412C35.4962 74.6627 35.8821 74.8556 36.2679 74.8556H58.7101C59.2889 74.8556 59.8033 74.5341 59.9962 74.0197C60.1892 73.4409 59.9962 73.0551 59.8033 72.7979C59.5461 72.4764 59.1603 72.2835 58.7745 72.2835H36.3322Z" fill="#263357"/>
<path d="M58.8388 80H35.6892C35.1747 80 34.7246 79.5499 34.7246 79.0354C34.7246 78.521 35.1747 78.0709 35.6892 78.0709H58.8388C59.3532 78.0709 59.8033 78.521 59.8033 79.0354C59.8033 79.5499 59.3532 80 58.8388 80Z" fill="#263357"/>
<path d="M53.373 45.9186V49.7769H75.2366L76.5226 45.9186H53.373Z" fill="#9043C3"/>
<path d="M24.8212 43.7323C18.2622 43.7323 12.6034 37.6234 11.3816 29.2638C11.3173 28.878 11.5102 28.5565 11.7674 28.3635C11.9603 27.9777 12.4748 26.4344 12.9249 25.2126C14.2753 21.483 14.7897 20.1969 15.047 19.7467C16.1401 18.2677 17.4262 16.9174 18.8409 15.7599C19.0338 15.567 19.291 15.5027 19.6126 15.567C19.8698 15.6313 20.127 15.7599 20.2556 15.9528C21.2845 17.4318 23.085 18.6536 25.7858 20.5184L26.8147 21.2257C30.7372 23.9265 34.7884 24.8268 37.8107 25.2769C38.3252 25.3412 38.711 25.8557 38.6467 26.3701L38.3252 29.1995C36.9748 37.6877 31.316 43.7323 24.8212 43.7323ZM13.3107 29.4567C14.5968 36.6588 19.3554 41.8032 24.8212 41.8032C30.4157 41.8032 35.2385 36.4016 36.3317 28.9423L36.5246 27.0775C34.2097 26.6916 29.837 25.7271 25.6572 22.8334L24.6283 22.126C22.1847 20.4541 20.4485 19.2966 19.2267 17.8819C18.1979 18.7822 17.2976 19.7467 16.526 20.8399C16.2687 21.2258 15.3042 23.9908 14.6611 25.7914C13.8895 28.042 13.5036 28.9423 13.375 29.2638C13.375 29.3924 13.375 29.3924 13.3107 29.4567Z" fill="#263357"/>
<path d="M21.5419 29.1996H18.9695C18.455 29.1996 18.0049 28.7495 18.0049 28.235C18.0049 27.7205 18.455 27.2704 18.9695 27.2704H21.5419C22.0563 27.2704 22.5065 27.7205 22.5065 28.235C22.5065 28.7495 22.0563 29.1996 21.5419 29.1996Z" fill="#263357"/>
<path d="M31.1883 29.1996H28.616C28.1015 29.1996 27.6514 28.7495 27.6514 28.235C27.6514 27.7205 28.1015 27.2704 28.616 27.2704H31.1883C31.7028 27.2704 32.153 27.7205 32.153 28.235C32.153 28.7495 31.7028 29.1996 31.1883 29.1996Z" fill="#263357"/>
<path d="M24.8217 38.7811C23.5356 38.7811 22.1851 38.2666 20.9632 37.3663C20.5131 37.0447 20.4488 36.466 20.7703 36.0158C21.0918 35.5656 21.6706 35.5013 22.1208 35.8229C23.9214 37.1734 25.7221 37.1734 27.5227 35.8229C27.9729 35.5013 28.5517 35.5656 28.8732 36.0158C29.1947 36.466 29.1304 37.0447 28.6803 37.3663C27.4584 38.2666 26.1079 38.7811 24.8217 38.7811Z" fill="#263357"/>
<path d="M40.5121 44.6326L34.0817 42.7034L31.3809 59.4226H17.684L14.9189 42.2533L9.00293 45.2756L12.2182 69.0682H36.6538L40.5121 44.6326Z" fill="#9043C3"/>
<path d="M0.964566 69.7113C0.450131 69.7113 0 69.2612 0 68.7467V59.8084V59.7441C0.964566 46.6903 10.8674 41.353 15.626 41.546C16.1404 41.546 16.5905 41.9961 16.5262 42.5748C16.5262 43.0893 16.0761 43.5394 15.4974 43.4751C12.4108 43.3465 2.8937 47.1404 1.92913 59.8084V68.7467C1.92913 69.2612 1.479 69.7113 0.964566 69.7113Z" fill="#263357"/>
<path d="M69.8991 73.5696H63.9831C63.4687 73.5696 63.0186 73.1194 63.0186 72.605C63.0186 72.0906 63.4687 71.6404 63.9831 71.6404H69.1275L75.8794 45.4042C76.0081 44.8898 76.5225 44.5683 77.0369 44.6969C77.5514 44.8255 77.8729 45.3399 77.7443 45.8544L70.7994 72.8622C70.6708 73.3123 70.285 73.5696 69.8991 73.5696Z" fill="#263357"/>
<path d="M77.0366 45.9186H53.6941C53.1796 45.9186 52.7295 45.4685 52.7295 44.9541C52.7295 44.4396 53.1796 43.9895 53.6941 43.9895H77.0366C77.3581 43.9895 77.6796 43.6037 77.6796 43.0249C77.6796 42.4462 77.3581 42.0604 77.0366 42.0604H53.6941C53.1796 42.0604 52.7295 41.6102 52.7295 41.0958C52.7295 40.5814 53.1796 40.1312 53.6941 40.1312H77.0366C78.4513 40.1312 79.6087 41.4173 79.6087 43.0249C79.6087 44.6325 78.4513 45.9186 77.0366 45.9186Z" fill="#263357"/>
<path d="M42.4414 70.9974V68.9396C42.7629 67.8465 43.7275 65.853 43.7275 65.853L45.6566 65.21V26.8202C45.6566 25.6627 46.6212 24.6982 47.7787 24.6982H48.0359C49.1934 24.6982 50.1579 25.6627 50.1579 26.8202V65.21L52.7301 65.853C52.7301 65.853 53.6304 67.8465 53.3732 68.9396V70.9974H42.4414Z" fill="#61C4F2"/>
<path d="M53.0511 71.6404C52.5367 71.6404 52.0866 71.1903 52.0866 70.6759V67.0105C52.0866 66.7533 51.8936 66.4961 51.5721 66.4961H50.4789C49.9645 66.4961 49.5144 66.046 49.5144 65.5315V26.563C49.5144 26.2415 49.1929 25.3412 48.5498 25.3412H47.328C46.7493 25.3412 46.2992 25.7914 46.2992 26.3701V65.5315C46.2992 66.046 45.849 66.4961 45.3346 66.4961H44.9488C44.3057 66.4961 43.727 67.0105 43.727 67.7179V70.6759C43.727 71.1903 43.2769 71.6404 42.7624 71.6404C42.248 71.6404 41.7979 71.1903 41.7979 70.6759V67.7179C41.7979 66.1746 42.891 64.8885 44.37 64.6313V26.3701C44.37 24.7625 45.7204 23.4121 47.328 23.4121H48.5498C50.4146 23.4121 51.4435 25.2769 51.4435 26.563V64.5669H51.5721C52.9225 64.5669 54.0157 65.6601 54.0157 67.0105V70.6759C54.0157 71.1903 53.5656 71.6404 53.0511 71.6404Z" fill="#263357"/>
<path d="M75.686 38.6522C75.3002 38.6522 74.9143 38.395 74.7857 38.0735C74.2713 36.7231 73.1138 36.0801 72.2135 35.7585C70.7345 35.2441 69.3842 35.3727 69.0626 35.5656C68.8054 35.7585 68.4839 35.8228 68.2267 35.7585C67.9051 35.6942 67.6479 35.437 67.5193 35.1155C67.2621 34.2795 65.976 33.1864 64.4327 32.8005C63.6611 32.6076 62.6322 32.5433 61.8605 33.315C61.6676 33.5079 61.3461 33.6365 61.0246 33.5722C60.7031 33.5079 60.4458 33.315 60.3172 33.0578C59.8028 32.0289 58.7739 31.3858 57.4878 31.3215C56.3303 31.2572 55.2372 31.7074 54.7227 32.4147C54.4012 32.8648 53.8225 32.9934 53.3723 32.6719C52.9222 32.3504 52.7936 31.7717 53.1151 31.3215C54.0154 29.9711 55.7516 29.2638 57.6164 29.3281C59.1597 29.4567 60.5101 30.0997 61.4104 31.1929C62.375 30.6785 63.5324 30.5499 64.8185 30.8714C66.4905 31.2572 68.0338 32.2861 68.8697 33.5079C69.7057 33.315 70.8632 33.3793 71.7634 33.5722C73.1138 33.8294 75.5574 34.7297 76.5862 37.3018C76.7792 37.8163 76.5219 38.3307 76.0718 38.5236C75.9432 38.6522 75.8146 38.6522 75.686 38.6522Z" fill="#263357"/>
<path d="M11.8968 69.0682C11.4466 69.0682 10.9965 68.7467 10.9322 68.2323L7.71697 45.7257C7.65267 45.2113 8.03849 44.6969 8.55293 44.6326C9.06737 44.5683 9.5818 44.9541 9.64611 45.4685L12.8613 67.9751C12.9256 68.4895 12.5398 69.0039 12.0254 69.0682C11.9611 69.0682 11.9611 69.0682 11.8968 69.0682Z" fill="#263357"/>
<path d="M41.4764 46.3691C41.2835 46.3691 41.0906 46.3048 40.962 46.1762C38.0681 44.1826 35.1742 43.3466 33.7594 43.4109C33.2449 43.4109 32.7948 43.0251 32.7305 42.5106C32.7305 41.9961 33.1163 41.546 33.6308 41.4817C35.8816 41.4174 39.097 42.6392 41.9909 44.5685C42.4411 44.89 42.5697 45.4688 42.2482 45.919C42.1195 46.2405 41.798 46.3691 41.4764 46.3691Z" fill="#263357"/>
<path d="M31.5089 60.7087H17.5549C17.0404 60.7087 16.6546 60.3229 16.5903 59.8727L14.5969 42.5748C14.5326 42.0604 14.9184 41.546 15.4328 41.4817C15.9472 41.4173 16.4617 41.8032 16.526 42.3176L18.4551 58.7795H30.7373L32.795 42.3176C32.8593 41.8032 33.3094 41.4173 33.8882 41.4817C34.4026 41.546 34.7884 42.0604 34.7241 42.5748L32.5378 59.8727C32.4092 60.3872 32.0234 60.7087 31.5089 60.7087Z" fill="#263357"/>
<path d="M36.9755 69.0682C36.9112 69.0682 36.9112 69.0682 36.8469 69.0682C36.3324 69.0039 35.9466 68.4895 36.0109 67.9751L39.2261 45.0184C39.2904 44.504 39.8049 44.1181 40.3193 44.1824C40.8337 44.2467 41.2196 44.7612 41.1553 45.2756L37.94 68.2323C37.8757 68.7467 37.4256 69.0682 36.9755 69.0682Z" fill="#263357"/>
<path d="M34.9815 37.3019C34.5956 37.3019 34.2741 37.109 34.0812 36.7231C33.8883 36.2087 34.0812 35.6943 34.5956 35.437C38.5182 33.7651 41.2833 26.4987 41.2833 23.1549C41.2833 19.5538 38.1324 14.4095 35.1744 11.13C34.7885 10.7441 34.8528 10.1011 35.2387 9.77957C35.6245 9.39375 36.2675 9.45805 36.5891 9.84388C39.0326 12.5447 43.2124 18.4607 43.2124 23.1549C43.2124 26.9489 40.2544 35.1155 35.3673 37.2376C35.2387 37.2376 35.1101 37.3019 34.9815 37.3019Z" fill="#263357"/>
<path d="M14.1474 36.6594C14.0188 36.6594 13.8902 36.6594 13.8259 36.5951C8.29573 34.4731 4.50177 26.9495 5.27342 22.3195C6.10938 17.3681 8.61725 14.1529 11.0608 11.1306C11.3823 10.6804 11.7682 10.2946 12.0897 9.84449C12.4112 9.39436 13.0543 9.33005 13.4401 9.65157C13.8902 9.9731 13.9545 10.6161 13.633 11.002C13.3115 11.4521 12.9257 11.8379 12.6041 12.2881C10.2892 15.1818 7.9099 18.1398 7.20255 22.5768C6.62381 25.9849 9.51752 32.8012 14.469 34.7303C14.9834 34.9232 15.2406 35.502 15.0477 35.9521C14.8548 36.4022 14.5333 36.6594 14.1474 36.6594Z" fill="#263357"/>
<path d="M31.5739 12.0945C31.381 12.0945 31.1881 12.0302 30.9952 11.9016C30.5451 11.5801 30.4808 11.0014 30.738 10.5512L34.339 5.34256C32.9886 3.34912 31.3167 2.83469 29.0661 3.60634C28.6159 3.73495 28.1658 3.60634 27.9086 3.22052C27.4585 2.51317 26.1081 1.99873 24.5005 1.93443C22.507 1.87012 20.6422 2.51317 19.9348 3.54204C19.7419 3.86356 19.3561 3.99217 18.9703 3.92786C16.3338 3.41343 15.1763 4.378 14.5333 5.40687L16.3981 8.49348C16.6553 8.94361 16.5267 9.52235 16.0766 9.84387C15.6264 10.1011 15.0477 9.97248 14.7262 9.52235L12.6041 5.9213C12.4112 5.66408 12.4112 5.27826 12.5398 5.02104C13.5044 3.28482 15.2406 1.41999 18.8417 1.93443C20.2564 0.455425 22.6999 -0.0590101 24.6291 0.00529432C26.5582 0.0695987 28.2301 0.648339 29.1304 1.61291C32.1527 0.841252 34.5963 1.93443 36.3968 4.89243C36.5897 5.21395 36.5897 5.59978 36.3325 5.9213L32.3456 11.6444C32.217 11.9016 31.8955 12.0945 31.5739 12.0945Z" fill="#263357"/>
<path d="M33.0521 13.3163C32.9234 13.3163 32.7305 13.252 32.6019 13.1877C27.7791 10.8084 20.577 10.8084 15.8185 13.1877C15.3683 13.4449 14.7896 13.252 14.5324 12.7376C14.2752 12.2874 14.4681 11.7087 14.9825 11.4515C20.2555 8.815 28.2292 8.815 33.5022 11.4515C33.9523 11.7087 34.1452 12.2874 33.9523 12.7376C33.7594 13.1234 33.4379 13.3163 33.0521 13.3163Z" fill="#263357"/>
<path d="M56.8453 23.4771C54.0801 23.4771 51.8936 21.2263 51.8936 18.5253C51.8936 15.8244 54.1444 13.5735 56.8453 13.5735C59.6106 13.5735 61.7971 15.8244 61.7971 18.5253C61.7971 21.2263 59.6106 23.4771 56.8453 23.4771ZM56.8453 15.4385C55.1733 15.4385 53.8228 16.789 53.8228 18.461C53.8228 20.133 55.1733 21.4835 56.8453 21.4835C58.5174 21.4835 59.8678 20.133 59.8678 18.461C59.8678 16.789 58.5174 15.4385 56.8453 15.4385Z" fill="#263357"/>
<path d="M67.1987 30.1002C65.398 30.1002 63.9189 28.6211 63.9189 26.8205C63.9189 25.0198 65.398 23.5407 67.1987 23.5407C68.9993 23.5407 70.4784 25.0198 70.4784 26.8205C70.4784 28.6211 68.9993 30.1002 67.1987 30.1002ZM67.1987 25.47C66.427 25.47 65.8482 26.1131 65.8482 26.8205C65.8482 27.5922 66.4913 28.1709 67.1987 28.1709C67.9704 28.1709 68.5492 27.5279 68.5492 26.8205C68.5492 26.0488 67.9061 25.47 67.1987 25.47Z" fill="#263357"/>
</svg>
