<svg width="76" height="80" viewBox="0 0 76 80" fill="none" xmlns="http://www.w3.org/2000/svg">
<path d="M56.8453 48.6371H43.124V50.4666C43.124 53.0801 45.2149 55.171 47.8285 55.171H56.8453V48.6371Z" fill="#61C4F2"/>
<path d="M62.0723 48.6371V55.171H70.4357C73.0493 55.171 75.1402 53.0801 75.1402 50.4666V48.6371H62.0723Z" fill="#61C4F2"/>
<path d="M70.4359 2.89943H47.8285C45.2149 2.89943 43.124 4.99029 43.124 7.60387V9.43337H75.1404V7.60387C75.1404 4.99029 73.0495 2.89943 70.4359 2.89943Z" fill="#61C4F2"/>
<path d="M70.3053 55.8244H65.0128C64.4901 55.8244 64.0327 55.367 64.0327 54.8443C64.0327 54.3216 64.4901 53.8642 65.0128 53.8642H70.3053C72.2655 53.8642 73.8336 52.2961 73.8336 50.3359V7.73456C73.8336 5.77438 72.2655 4.20623 70.3053 4.20623H47.9592C45.999 4.20623 44.4309 5.77438 44.4309 7.73456V9.10669C44.4309 9.62941 43.9735 10.0868 43.4508 10.0868C42.9281 10.0868 42.4707 9.62941 42.4707 9.10669V7.73456C42.4707 4.72895 44.9536 2.24605 47.9592 2.24605H70.3053C73.3109 2.24605 75.7938 4.72895 75.7938 7.73456V50.3359C75.7938 53.3415 73.3109 55.8244 70.3053 55.8244Z" fill="#263357"/>
<path d="M53.2517 55.8244H47.9592C44.9536 55.8244 42.4707 53.3415 42.4707 50.3359V37.2026C42.4707 36.6799 42.9281 36.2225 43.4508 36.2225C43.9735 36.2225 44.4309 36.6799 44.4309 37.2026V50.3359C44.4309 52.2961 45.999 53.8642 47.9592 53.8642H53.2517C53.7744 53.8642 54.2318 54.3216 54.2318 54.8443C54.2318 55.367 53.7744 55.8244 53.2517 55.8244Z" fill="#263357"/>
<path d="M61.7453 63.0118C61.2226 63.0118 60.7652 62.5544 60.7652 62.0317V37.268C60.7652 36.6799 60.3079 36.2226 59.7198 36.2226H58.5437C57.9556 36.2226 57.4983 36.6799 57.4983 37.268V62.0317C57.4983 62.5544 57.0409 63.0118 56.5182 63.0118C55.9955 63.0118 55.5381 62.5544 55.5381 62.0317V37.268C55.5381 35.6345 56.9102 34.2624 58.5437 34.2624H59.7198C61.3533 34.2624 62.7254 35.6345 62.7254 37.268V62.0317C62.7254 62.5544 62.2681 63.0118 61.7453 63.0118Z" fill="#263357"/>
<path d="M64.3592 68.2389C63.8365 68.2389 63.3791 67.7815 63.3791 67.2588V63.6651H54.885V67.2588C54.885 67.7815 54.4276 68.2389 53.9049 68.2389C53.3822 68.2389 52.9248 67.7815 52.9248 67.2588V62.685C52.9248 62.1623 53.3822 61.7049 53.9049 61.7049H64.3592C64.8819 61.7049 65.3393 62.1623 65.3393 62.685V67.2588C65.3393 67.7815 64.8819 68.2389 64.3592 68.2389Z" fill="#263357"/>
<path d="M63.7058 80H22.5419C20.5164 80 18.9482 78.3665 18.9482 76.4063V69.8724C18.9482 67.9122 20.5817 66.2787 22.5419 66.2787H63.6404C65.666 66.2787 67.2341 67.9122 67.2341 69.8724V76.341C67.2994 78.3665 65.666 80 63.7058 80ZM22.5419 68.2389C21.6272 68.2389 20.9084 68.9576 20.9084 69.8724V76.341C20.9084 77.2557 21.6272 77.9745 22.5419 77.9745H63.6404C64.5552 77.9745 65.2739 77.2557 65.2739 76.341V69.8724C65.2739 68.9576 64.5552 68.2389 63.6404 68.2389H22.5419Z" fill="#263357"/>
<path d="M59.1326 75.4263C60.3956 75.4263 61.4195 74.4024 61.4195 73.1394C61.4195 71.8764 60.3956 70.8525 59.1326 70.8525C57.8696 70.8525 56.8457 71.8764 56.8457 73.1394C56.8457 74.4024 57.8696 75.4263 59.1326 75.4263Z" fill="#9043C3"/>
<path d="M52.8597 71.5058H26.8545C26.1358 71.5058 25.4824 72.0939 25.4824 72.878V73.466C25.4824 74.1848 26.0705 74.8382 26.8545 74.8382H52.925C53.6437 74.8382 54.2971 74.2501 54.2971 73.466V72.878C54.2318 72.0939 53.6437 71.5058 52.8597 71.5058Z" fill="#9043C3"/>
<path d="M60.6347 30.6687C60.6347 31.4528 59.9813 32.1062 59.1972 32.1062C58.4132 32.1062 57.7598 31.4528 57.7598 30.6687C57.7598 29.8847 58.4132 29.2313 59.1972 29.2313C59.9813 29.2313 60.6347 29.8847 60.6347 30.6687Z" fill="#61C4F2"/>
<path d="M55.4733 28.7085C55.2773 28.7085 55.1466 28.6432 55.0159 28.5778C54.5586 28.3165 54.3625 27.7284 54.6239 27.271C55.5387 25.6376 57.3028 24.6575 59.1323 24.5921H59.1977C60.9618 24.5921 62.6607 25.5069 63.6407 27.0097C63.9021 27.4671 63.8368 28.0551 63.3794 28.3818C62.922 28.7085 62.334 28.5778 62.0073 28.1205C61.4192 27.1404 60.3738 26.6177 59.263 26.6177C59.263 26.6177 59.263 26.6177 59.1977 26.6177C58.0216 26.6177 56.9761 27.271 56.3881 28.2511C56.1267 28.5778 55.8 28.7085 55.4733 28.7085Z" fill="#61C4F2"/>
<path d="M52.4023 26.2256C52.2062 26.2256 52.0756 26.1603 51.8796 26.0949C51.4222 25.8336 51.2262 25.2455 51.5529 24.7228C53.121 22.0439 55.9959 20.4104 59.0669 20.3451C59.1322 20.3451 59.1322 20.3451 59.1976 20.3451C62.2032 20.3451 65.0128 21.8479 66.6463 24.4614C66.9076 24.9188 66.7769 25.5069 66.3196 25.8336C65.8622 26.0949 65.2741 25.9643 64.9474 25.5069C63.706 23.4814 61.4845 22.3052 59.1322 22.3052H59.0669C56.6493 22.3052 54.4278 23.612 53.1863 25.7029C53.0557 26.0949 52.729 26.2256 52.4023 26.2256Z" fill="#61C4F2"/>
<path d="M49.331 23.0893C49.135 23.0893 49.0043 23.024 48.8083 22.9587C48.3509 22.6973 48.1549 22.1092 48.4816 21.5865C50.7031 17.7968 54.6888 15.51 59.0666 15.4446C59.1319 15.4446 59.1319 15.4446 59.1972 15.4446C63.4443 15.4446 67.3647 17.6008 69.6516 21.1945C69.9129 21.6519 69.7822 22.2399 69.3249 22.5666C68.8675 22.828 68.2794 22.6973 67.9527 22.2399C65.9925 19.169 62.6602 17.3395 59.0012 17.4048C55.2769 17.4701 52.0099 19.365 50.1151 22.5666C49.9844 22.9587 49.6577 23.0893 49.331 23.0893Z" fill="#61C4F2"/>
<path d="M0.980092 78.6932C0.457376 78.6932 0 78.2358 0 77.7131V63.7958V63.7305C1.04543 49.4211 11.5651 45.9581 17.5763 46.1542C17.8377 46.1542 18.099 46.2848 18.295 46.5462C20.8433 49.7478 24.6983 51.4467 28.684 51.1853C32.0817 50.9893 35.1526 49.2904 36.7208 46.6115C36.9821 46.1542 37.6355 46.0235 38.0929 46.2848C38.5503 46.5462 38.681 47.1996 38.4196 47.657C36.4594 50.8586 32.8657 52.8841 28.8147 53.1455C24.3716 53.4068 20.0592 51.5773 17.1189 48.1143C14.3747 48.1143 3.07095 49.0944 1.96018 63.8611V77.7131C1.96018 78.2358 1.50281 78.6932 0.980092 78.6932Z" fill="#263357"/>
<path d="M14.4402 26.0949C14.1136 26.0949 13.8522 25.9643 13.6562 25.7029C12.6761 24.3308 10.4545 20.7371 11.304 16.2287C12.088 12.243 14.8323 9.89076 16.5311 8.51863C18.1646 7.1465 19.9941 6.10107 21.9543 5.38234L21.7583 3.55283C21.6929 3.29147 21.8236 2.96478 22.0196 2.76876C22.2156 2.57274 22.477 2.44206 22.7384 2.44206C23.5878 2.44206 24.3718 2.57274 25.2213 2.70342C25.8093 2.76876 26.3974 2.89944 26.9854 3.09546C27.2468 2.63808 27.5081 2.1807 27.8348 1.78867C28.7496 0.743236 29.8604 0.220521 30.6444 0.0245023C30.9711 -0.0408372 31.2978 0.0245023 31.5592 0.220521C31.8205 0.481878 31.9512 0.808576 31.8859 1.13527C31.8205 1.46197 31.7552 2.05003 32.0819 2.76876C32.3433 3.42215 32.8006 3.81419 33.062 3.94487C34.4995 4.79428 35.9369 5.70903 37.2437 6.75447C38.5505 7.7999 40.184 9.10669 41.4908 10.9362C42.2749 12.1123 42.7976 13.2231 42.9936 13.8111C43.3203 14.5952 43.3856 15.0526 43.3856 15.0526C43.7777 17.1434 43.7123 19.2996 43.1243 21.3252C42.7322 22.632 42.1442 23.9387 41.3601 25.0495C41.0987 25.4415 40.6414 25.5722 40.184 25.4415C38.3545 24.7882 36.5903 23.8734 35.0222 22.828C34.2381 22.3706 33.5194 21.8479 32.866 21.2598C32.866 21.4558 32.9313 21.5865 32.9313 21.7825C33.062 22.5013 33.258 23.22 33.5847 23.8734C33.7154 24.1348 33.7154 24.5268 33.5194 24.7882C33.3234 25.0495 33.062 25.2455 32.7353 25.2455C30.2524 25.3762 26.528 25.1802 22.673 23.0893C20.7128 22.0439 18.8833 20.5411 17.3805 18.8423C17.0538 19.4303 16.7271 20.0837 16.4658 20.7371C15.8777 22.1092 15.551 23.612 15.4203 25.1149C15.355 25.5069 15.0936 25.8336 14.7016 25.9643C14.6363 26.0949 14.5709 26.0949 14.4402 26.0949ZM17.3152 16.2287C17.6419 16.2287 17.9032 16.3594 18.0993 16.6207C19.5367 18.5809 21.4316 20.2797 23.5878 21.3905C26.3974 22.8933 29.1416 23.3507 31.2325 23.3507C31.1018 22.9586 31.0365 22.5013 30.9711 22.1092C30.8405 21.1291 30.8405 20.0837 30.9711 19.1036C31.0365 18.7769 31.2978 18.4502 31.6245 18.3195C31.9512 18.1889 32.3433 18.2542 32.6046 18.5156C33.6501 19.4957 34.8262 20.4104 36.0676 21.1945C37.3744 22.0439 38.7465 22.7626 40.1187 23.2853C40.576 22.5013 40.9681 21.6519 41.2294 20.7371C41.7521 19.0383 41.8175 17.2088 41.4254 15.3793C41.4254 15.3793 41.3601 15.0526 41.0987 14.4645C40.9027 14.0725 40.5107 12.9617 39.792 11.9816C38.6812 10.3481 37.2437 9.23737 35.9369 8.19193C34.6955 7.21184 33.3887 6.29709 31.9512 5.51302C31.9512 5.51302 31.8859 5.51302 31.8859 5.44768C31.3632 5.05564 30.6444 4.40225 30.1871 3.35681C30.0564 3.03012 29.9257 2.63808 29.8604 2.31138C29.6643 2.44206 29.403 2.63808 29.207 2.89944C28.8149 3.29147 28.5536 3.81419 28.3576 4.40225C28.2922 4.6636 28.0962 4.85962 27.9002 4.9903C27.6388 5.12098 27.3775 5.12098 27.1814 5.05564C26.3974 4.79428 25.6133 4.59826 24.8292 4.46759C24.5025 4.40225 24.1105 4.33691 23.7185 4.33691L23.9145 5.77437C23.9798 6.23175 23.7185 6.68913 23.2611 6.81981C21.1702 7.4732 19.3407 8.51863 17.7072 9.89076C16.1391 11.1975 13.7869 13.2231 13.1335 16.49C12.7414 18.7116 13.1988 20.6718 13.8522 22.1746C14.0482 21.4558 14.2442 20.7371 14.5709 20.0184C15.0283 18.7769 15.6817 17.6662 16.4658 16.5554C16.7271 16.4247 16.9885 16.2287 17.3152 16.2287Z" fill="#263357"/>
<path d="M13.3942 78.6932C12.8714 78.6932 12.4141 78.2358 12.4141 77.7131V65.952C12.4141 65.4293 12.8714 64.9719 13.3942 64.9719C13.9169 64.9719 14.3742 65.4293 14.3742 65.952V77.7131C14.3742 78.2358 13.9169 78.6932 13.3942 78.6932Z" fill="#263357"/>
<path d="M14.9628 31.9102C14.5055 31.9102 14.1134 31.5835 13.9827 31.1261C13.9827 31.0607 13.7867 30.9954 13.656 30.8647C13.068 30.4727 12.1532 29.8193 11.6959 27.9244C10.8464 24.3308 12.2839 23.2853 12.9373 23.024C13.46 22.828 13.9827 23.024 14.2441 23.5467C14.4401 24.0694 14.2441 24.5921 13.7214 24.8535C13.5254 24.9188 13.1333 25.5722 13.5907 27.5324C13.8521 28.7085 14.3094 29.0352 14.7668 29.3619C15.1589 29.6233 15.6816 30.0153 15.8776 30.8647C16.0083 31.3874 15.6162 31.9102 15.0935 32.0408C15.0935 31.9102 15.0282 31.9102 14.9628 31.9102Z" fill="#263357"/>
<path d="M40.6407 31.9102C40.5754 31.9102 40.51 31.9102 40.4447 31.9102C39.922 31.7795 39.5953 31.3221 39.6606 30.7994C39.7913 29.95 40.3794 29.6233 40.7714 29.2966C41.2288 28.9699 41.6208 28.7085 41.9475 27.4671C42.4049 25.6376 42.0128 24.9188 41.8822 24.8535C41.7515 24.7882 41.6208 24.8535 41.4901 24.9188C41.0328 25.2455 40.4447 25.1149 40.118 24.6575C39.7913 24.2001 39.922 23.612 40.3794 23.2853C41.2288 22.6973 42.2742 22.6973 42.9929 23.22C43.777 23.7427 44.5611 24.9842 43.8424 27.9244C43.385 29.8193 42.4702 30.4727 41.8822 30.8647C41.7515 30.9301 41.6208 31.0607 41.5555 31.1261C41.5555 31.5835 41.0981 31.9102 40.6407 31.9102Z" fill="#263357"/>
<path d="M27.8349 45.9581C21.1049 45.9581 15.2897 39.6856 14.0483 31.0607C13.9829 30.538 14.3096 30.0153 14.8977 29.95C15.4204 29.8846 15.9431 30.2113 16.0085 30.7994C17.1846 38.4441 22.1504 43.998 27.9003 43.998C33.6501 43.998 38.6159 38.4441 39.792 30.7994C39.8574 30.2767 40.3801 29.8846 40.9028 29.95C41.4255 30.0153 41.8176 30.538 41.7522 31.0607C40.3148 39.6856 34.4995 45.9581 27.8349 45.9581Z" fill="#263357"/>
<path d="M23.8486 30.9954H21.235C20.7123 30.9954 20.2549 30.538 20.2549 30.0153C20.2549 29.4926 20.7123 29.0352 21.235 29.0352H23.8486C24.3713 29.0352 24.8286 29.4926 24.8286 30.0153C24.8286 30.538 24.3713 30.9954 23.8486 30.9954Z" fill="#263357"/>
<path d="M33.6503 30.9954H31.0367C30.514 30.9954 30.0566 30.538 30.0566 30.0153C30.0566 29.4926 30.514 29.0352 31.0367 29.0352H33.6503C34.173 29.0352 34.6304 29.4926 34.6304 30.0153C34.6304 30.538 34.173 30.9954 33.6503 30.9954Z" fill="#263357"/>
<path d="M27.8342 40.8617C26.462 40.8617 25.0899 40.339 23.8484 39.4242C23.3911 39.0975 23.3257 38.5095 23.6524 38.0521C23.9791 37.5947 24.5672 37.5294 25.0246 37.8561C26.8541 39.2282 28.7489 39.2282 30.5784 37.8561C31.0358 37.5294 31.6238 37.5947 31.9505 38.0521C32.2772 38.5095 32.2119 39.0975 31.7545 39.4242C30.5131 40.339 29.1409 40.8617 27.8342 40.8617Z" fill="#263357"/>
</svg>
