<svg width="31" height="29" viewBox="0 0 31 29" fill="none" xmlns="http://www.w3.org/2000/svg">
<path fill-rule="evenodd" clip-rule="evenodd" d="M30.4805 2.82182C31.158 2.18801 31.1708 1.13022 30.4813 0.485211C29.787 -0.164299 28.6735 -0.159439 27.9836 0.486022L15.5 12.1642L3.01643 0.486022C2.33891 -0.147789 1.20817 -0.159802 0.518674 0.485211C-0.17563 1.13472 -0.170435 2.17636 0.519541 2.82182L13.0031 14.5L0.519541 26.1782C-0.157982 26.812 -0.170823 27.8698 0.518674 28.5148C1.21298 29.1643 2.32645 29.1594 3.01643 28.514L15.5 16.8358L27.9836 28.514C28.6611 29.1478 29.7918 29.1598 30.4813 28.5148C31.1756 27.8653 31.1704 26.8236 30.4805 26.1782L17.9969 14.5L30.4805 2.82182Z" fill="#ffffff"/>
</svg>
