<svg width="137" height="68" viewBox="0 0 137 68" fill="none" xmlns="http://www.w3.org/2000/svg">
<path fill-rule="evenodd" clip-rule="evenodd" d="M113.916 50.4001C114.616 51.2001 115.116 52.3001 116.016 53.0001C121.116 56.6001 125.316 61.1001 129.716 65.6001C130.116 66.0001 130.516 66.5001 131.016 66.8001C131.916 67.5001 133.616 67.1001 134.116 66.1001C134.216 65.9001 134.416 65.8001 134.416 65.6001C135.016 61.2001 135.716 56.9001 136.116 52.5001C136.216 51.4001 135.616 50.3001 135.216 48.5001C134.216 49.6001 133.516 50.0001 133.416 50.6001C132.616 53.2001 131.816 55.9001 131.216 58.2001C129.716 59.3001 128.916 58.7001 128.216 58.0001C125.116 55.2001 122.016 52.4001 118.816 49.6001C117.016 48.2001 115.416 48.3001 113.916 50.4001Z" fill="#252525"/>
<path fill-rule="evenodd" clip-rule="evenodd" d="M115.615 30.3C116.015 25.3 113.815 21.7 110.515 18.8C109.815 18.2 108.715 17.8 107.815 17.8C107.215 17.8 106.415 18.4001 106.015 19.0001C105.715 19.3001 105.815 20.3001 106.115 20.6001C109.315 23.9001 112.515 27.1 115.615 30.3Z" fill="#252525"/>
<path fill-rule="evenodd" clip-rule="evenodd" d="M126.116 50.3C126.716 49.1 127.216 48.6001 127.216 48.1001C126.916 44.0001 125.616 40.3001 123.416 36.9001C122.316 35.2001 121.416 35.1 118.716 36.8C120.916 41.1 122.216 45.9 126.116 50.3Z" fill="#252525"/>
<path fill-rule="evenodd" clip-rule="evenodd" d="M60.2152 2.90012C55.8152 -0.499881 51.6152 -0.099884 47.3152 1.10012C46.9152 1.20012 46.6152 1.50011 46.4152 1.80011C46.1152 2.30011 45.6152 3.00012 45.7152 3.40012C46.0152 4.00012 46.6152 4.80012 47.2152 5.00012C48.1152 5.20012 49.1152 5.00012 50.1152 4.90012C52.8152 4.60012 55.6152 4.40012 58.3152 4.00012C58.9152 3.90012 59.4152 3.40012 60.2152 2.90012Z" fill="#252525"/>
<path fill-rule="evenodd" clip-rule="evenodd" d="M71.2153 6.05583e-05C70.4153 0.10006 69.1153 0.200059 68.1153 0.600059C67.6153 0.800059 67.1153 1.70006 66.9153 2.30006C66.8153 2.70006 67.3153 3.60006 67.7153 3.70006C71.5153 4.70006 75.4153 4.80006 79.4153 4.60006C79.6153 4.60006 80.0153 4.10006 80.1153 3.70006C80.2153 3.40006 80.1153 2.90006 79.9153 2.60006C77.4153 0.500059 74.5153 0.20006 71.2153 6.05583e-05Z" fill="#252525"/>
<path fill-rule="evenodd" clip-rule="evenodd" d="M99.6157 14.1001C100.216 11.7001 99.0157 10.3001 98.0157 8.9001C96.4157 6.5001 93.9157 5.80009 91.4157 5.30009C90.9157 5.20009 90.1157 6.0001 89.7157 6.6001C89.5157 7.0001 89.8157 7.70009 89.9157 8.30009C89.9157 8.50009 90.1157 8.6001 90.3157 8.7001C93.3157 10.4001 96.3157 12.2001 99.6157 14.1001Z" fill="#252525"/>
<path fill-rule="evenodd" clip-rule="evenodd" d="M37.0159 5.60012C33.1159 4.60012 29.8159 5.90012 26.7159 7.90012C26.1159 8.30012 25.5159 9.10012 25.4159 9.70012C25.3159 10.3001 26.2159 11.5001 26.4159 11.4001C30.2159 10.4001 33.9159 9.40012 37.0159 6.80012C37.1159 6.70012 37.0159 6.40012 37.0159 5.60012Z" fill="#252525"/>
<path fill-rule="evenodd" clip-rule="evenodd" d="M11.8157 24.0001C12.0157 24.0001 12.7157 24.0001 13.1157 23.6001C15.4157 21.5001 17.7157 19.3001 19.9157 17.1001C20.2157 16.8001 20.1157 15.9001 19.8157 15.6001C19.5157 15.3001 18.7157 15.1001 18.2157 15.3001C15.0157 16.6001 12.6157 18.9001 10.5157 21.7001C10.0157 22.4001 10.6157 24.0001 11.8157 24.0001Z" fill="#252525"/>
<path fill-rule="evenodd" clip-rule="evenodd" d="M7.71554 28.7001C5.71554 29.5001 4.81554 29.7001 4.21554 30.2001C1.81554 32.5001 0.915542 35.5001 0.0155417 38.6001C-0.0844583 39.0001 0.315542 39.8001 0.715542 40.1001C1.11554 40.3001 1.91554 40.3001 2.31554 40.0001C2.91554 39.6001 3.51554 39.0001 3.81554 38.3001C5.11554 35.6001 6.11554 32.8001 7.71554 28.7001Z" fill="#252525"/>
</svg>
