<svg width="77" height="80" viewBox="0 0 77 80" fill="none" xmlns="http://www.w3.org/2000/svg">
<path d="M52.2877 55.936C51.7757 55.936 51.3277 55.488 51.3277 54.976C51.3277 53.696 50.1757 53.12 49.0877 53.12C47.9997 53.12 46.8477 53.696 46.8477 54.976C46.8477 55.488 46.3997 55.936 45.8877 55.936C45.3757 55.936 44.9277 55.488 44.9277 54.976C44.9277 52.8 46.6557 51.2 49.0877 51.2C51.5197 51.2 53.2477 52.8 53.2477 54.976C53.2477 55.488 52.7997 55.936 52.2877 55.936Z" fill="#263357"/>
<path d="M49.408 53.12C49.28 53.12 49.216 53.12 49.088 53.056C48.576 52.864 48.32 52.352 48.512 51.84L49.92 47.552C50.112 47.04 50.624 46.784 51.136 46.976C51.648 47.168 51.904 47.68 51.712 48.192L50.304 52.48C50.24 52.864 49.856 53.12 49.408 53.12Z" fill="#263357"/>
<path d="M57.1518 40.96H40.1278C37.7598 40.96 35.8398 42.88 35.8398 45.248V75.136C35.8398 77.504 37.7598 79.424 40.1278 79.424H57.2158C59.5838 79.424 61.5038 77.504 61.5038 75.136V45.248C61.4398 42.88 59.5198 40.96 57.1518 40.96ZM49.0878 75.264C45.1838 75.264 41.9838 72.064 41.9838 68.16C41.9838 64.256 45.1838 61.056 49.0878 61.056C52.9918 61.056 56.1918 64.256 56.1918 68.16C56.1918 72.064 52.9918 75.264 49.0878 75.264ZM56.3198 55.04H40.9598C39.9358 55.04 39.0398 54.208 39.0398 53.12V45.44C39.0398 44.416 39.8718 43.52 40.9598 43.52H56.3198C57.3438 43.52 58.2398 44.352 58.2398 45.44V53.12C58.2398 54.208 57.4078 55.04 56.3198 55.04Z" fill="#9043C3"/>
<path d="M0.96 71.04C0.448 71.04 0 70.592 0 70.08V57.088V57.024C1.024 43.008 11.328 39.616 17.216 39.808C17.728 39.808 18.176 40.256 18.112 40.832C18.112 41.344 17.664 41.792 17.088 41.728C15.68 41.664 3.008 41.664 1.856 57.152V70.08C1.92 70.592 1.472 71.04 0.96 71.04Z" fill="#263357"/>
<path d="M11.7761 70.08C11.2641 70.08 10.8161 69.696 10.8161 69.184L9.66406 43.008C9.66406 42.496 10.0481 42.048 10.5601 41.984C10.5601 41.984 10.5601 41.984 10.6241 41.984C11.1361 41.984 11.5841 42.368 11.5841 42.88L12.7361 69.056C12.7361 69.632 12.3521 70.08 11.7761 70.08C11.8401 70.08 11.7761 70.08 11.7761 70.08Z" fill="#263357"/>
<path d="M31.0402 55.04H19.4562C19.0082 55.04 18.5602 54.72 18.4962 54.208L16.2562 40.704C16.1922 40.192 16.5122 39.68 17.0242 39.616C17.5362 39.552 18.0482 39.872 18.1122 40.384L20.2882 53.12H31.0402C31.5522 53.12 32.0002 53.568 32.0002 54.08C32.0002 54.592 31.5522 55.04 31.0402 55.04Z" fill="#263357"/>
<path d="M40.9597 16.32C40.4477 16.32 40.0637 15.936 39.9997 15.424C39.6797 9.85596 35.3917 5.18396 29.6317 4.15996C29.1197 4.03196 28.7357 3.58396 28.8637 3.00796C28.9917 2.49596 29.4397 2.17596 30.0157 2.23996C36.6717 3.45596 41.5357 8.83196 41.9837 15.296C41.9197 15.808 41.5357 16.256 40.9597 16.32Z" fill="#263357"/>
<path d="M13.2481 16.064H13.1841C12.6721 16 12.2881 15.552 12.2881 15.04C12.6721 9.98397 15.9361 5.50397 20.6721 3.32797C21.1841 3.13597 21.6961 3.32797 21.9521 3.77597C22.1441 4.28797 21.9521 4.79997 21.5041 5.05597C17.3441 6.97597 14.5281 10.816 14.2081 15.168C14.1441 15.68 13.7601 16.064 13.2481 16.064Z" fill="#263357"/>
<path d="M41.9202 20.48H13.1202C11.5202 20.48 10.2402 19.2 10.2402 17.6C10.2402 16 11.5202 14.72 13.1202 14.72H41.9202C43.5202 14.72 44.8002 16 44.8002 17.6C44.8002 19.2 43.5202 20.48 41.9202 20.48ZM13.1202 16.64C12.6082 16.64 12.1602 17.088 12.1602 17.6C12.1602 18.112 12.6082 18.56 13.1202 18.56H41.9202C42.4322 18.56 42.8802 18.112 42.8802 17.6C42.8802 17.088 42.4322 16.64 41.9202 16.64H13.1202Z" fill="#263357"/>
<path d="M29.1202 16.64C28.5442 16.64 28.1602 16.192 28.1602 15.616L28.6082 2.94396C28.6082 2.43197 28.0962 1.91997 27.5202 1.91997H26.6882C26.1122 1.91997 25.6002 2.43196 25.6002 3.00797L26.2402 11.776C26.3042 12.288 25.8562 12.736 25.3442 12.8C24.8322 12.864 24.3842 12.416 24.3202 11.904L23.6162 3.13597V3.07197C23.6162 1.40797 24.9602 0.0639648 26.6882 0.0639648H27.5202C29.1842 0.0639648 30.5922 1.40797 30.5922 3.07197L30.0802 15.744C30.0802 16.256 29.6322 16.64 29.1202 16.64Z" fill="#263357"/>
<path d="M57.9202 80H40.0002C37.3762 80 35.2002 77.824 35.2002 75.2V44.48C35.2002 41.856 37.3762 39.68 40.0002 39.68H57.9202C60.5442 39.68 62.7202 41.856 62.7202 44.48V75.2C62.7202 77.824 60.5442 80 57.9202 80ZM40.0002 41.6C38.4002 41.6 37.1202 42.88 37.1202 44.48V75.2C37.1202 76.8 38.4002 78.08 40.0002 78.08H57.9202C59.5202 78.08 60.8002 76.8 60.8002 75.2V44.48C60.8002 42.88 59.5202 41.6 57.9202 41.6H40.0002Z" fill="#263357"/>
<path d="M52.2885 72.32C52.0325 72.32 51.7765 72.256 51.5845 72.064L45.1845 65.664C44.8005 65.28 44.8005 64.704 45.1845 64.32C45.5685 63.936 46.1445 63.936 46.5285 64.32L52.9285 70.72C53.3125 71.104 53.3125 71.68 52.9285 72.064C52.8005 72.192 52.5445 72.32 52.2885 72.32Z" fill="#263357"/>
<path d="M64.1921 74.24H63.0401C62.5281 74.24 62.0801 73.792 62.0801 73.28C62.0801 72.768 62.5281 72.32 63.0401 72.32H64.1921C65.4721 72.32 66.5601 71.296 66.5601 69.952V48.96C66.5601 48.448 67.0081 48 67.5201 48C68.0321 48 68.4801 48.448 68.4801 48.96V69.952C68.4801 72.32 66.5601 74.24 64.1921 74.24Z" fill="#263357"/>
<path d="M67.5203 71.04C67.3923 71.04 67.2643 71.04 67.2003 70.976C66.6883 70.784 66.4323 70.208 66.6243 69.76L72.3843 54.4C72.5763 53.888 73.1523 53.632 73.6003 53.824C74.1123 54.016 74.3683 54.592 74.1763 55.04L68.4163 70.4C68.2883 70.784 67.9043 71.04 67.5203 71.04Z" fill="#263357"/>
<path d="M70.0797 49.92H64.9597C64.6397 49.92 64.3197 49.792 64.1917 49.472C63.9997 49.216 63.9997 48.896 64.0637 48.576L65.8557 43.968C66.1117 43.328 66.7517 42.88 67.5197 42.88C68.2877 42.88 68.8637 43.328 69.1837 43.968L70.9757 48.576C71.1037 48.896 71.0397 49.216 70.8477 49.472C70.7197 49.792 70.3997 49.92 70.0797 49.92ZM66.3677 48H68.6717L67.5197 45.12L66.3677 48Z" fill="#263357"/>
<path d="M75.7124 56.064C75.6484 56.064 75.5844 56.064 75.4564 56.064L70.4644 54.848C70.1444 54.784 69.8884 54.528 69.8244 54.272C69.6964 53.952 69.7604 53.632 69.9524 53.376L72.8324 49.344C73.2164 48.768 73.9844 48.512 74.6884 48.704C75.3924 48.896 75.9044 49.472 76.0324 50.176L76.6724 55.04C76.7364 55.36 76.6084 55.68 76.3524 55.872C76.1604 56 75.9044 56.064 75.7124 56.064ZM72.3204 53.312L74.5604 53.888L74.1764 50.816L72.3204 53.312Z" fill="#263357"/>
<path d="M65.2804 15.04C65.2804 10.24 61.2484 6.39996 56.3204 6.39996C51.3924 6.39996 47.3604 10.24 47.3604 15.04C47.3604 17.792 48.7044 20.288 50.8164 21.888C51.4564 22.784 51.2004 23.552 51.2004 26.24C51.2004 27.2 52.1604 28.16 53.1204 28.16H59.5204C60.4804 28.16 61.4404 27.2 61.4404 26.24C61.4404 23.552 61.1844 22.72 61.7604 21.888C63.8724 20.288 65.2804 17.856 65.2804 15.04Z" fill="#61C4F2"/>
<path d="M54.7197 19.2H52.9917C51.5197 19.2 50.3037 17.984 50.3037 16.512C50.3037 15.04 51.5197 13.824 52.9917 13.824C54.4637 13.824 55.6797 15.04 55.6797 16.512V18.24C55.6797 18.752 55.2317 19.2 54.7197 19.2ZM52.9917 15.744C52.5437 15.744 52.2237 16.064 52.2237 16.512C52.2237 16.96 52.5437 17.28 52.9917 17.28H53.7597V16.512C53.7597 16.064 53.4397 15.744 52.9917 15.744Z" fill="white"/>
<path d="M54.7198 26.24C54.2078 26.24 53.7598 25.792 53.7598 25.28V18.88C53.7598 18.368 54.2078 17.92 54.7198 17.92C55.2318 17.92 55.6798 18.368 55.6798 18.88V25.28C55.6798 25.792 55.2318 26.24 54.7198 26.24Z" fill="white"/>
<path d="M57.92 26.24C57.408 26.24 56.96 25.792 56.96 25.28V18.88C56.96 18.368 57.408 17.92 57.92 17.92C58.432 17.92 58.88 18.368 58.88 18.88V25.28C58.88 25.792 58.432 26.24 57.92 26.24Z" fill="white"/>
<path d="M59.648 19.2H57.92C57.408 19.2 56.96 18.752 56.96 18.24V16.512C56.96 15.04 58.176 13.824 59.648 13.824C61.12 13.824 62.336 15.04 62.336 16.512C62.336 17.984 61.12 19.2 59.648 19.2ZM58.88 17.28H59.648C60.096 17.28 60.416 16.96 60.416 16.512C60.416 16.064 60.096 15.744 59.648 15.744C59.2 15.744 58.88 16.064 58.88 16.512V17.28Z" fill="white"/>
<path d="M59.8398 19.2H52.7998C52.2878 19.2 51.8398 18.752 51.8398 18.24C51.8398 17.728 52.2878 17.28 52.7998 17.28H59.8398C60.3518 17.28 60.7998 17.728 60.7998 18.24C60.7998 18.752 60.3518 19.2 59.8398 19.2Z" fill="white"/>
<path d="M59.8398 33.28H52.7998C52.3518 33.28 51.9038 32.96 51.8398 32.448L51.1998 28.608C51.1358 28.352 51.1998 28.032 51.3918 27.84C51.5838 27.648 51.8398 27.52 52.0958 27.52H60.4158C60.6718 27.52 60.9918 27.648 61.1198 27.84C61.3118 28.032 61.3758 28.352 61.3118 28.608L60.6718 32.448C60.7358 32.96 60.2878 33.28 59.8398 33.28ZM53.6318 31.36H59.0718L59.3918 29.44H53.3118L53.6318 31.36Z" fill="#263357"/>
<path d="M56 4.47997C55.488 4.47997 55.04 4.03197 55.04 3.51997V1.59997C55.04 1.08797 55.488 0.639969 56 0.639969C56.512 0.639969 56.96 1.08797 56.96 1.59997V3.51997C56.96 4.03197 56.512 4.47997 56 4.47997Z" fill="#263357"/>
<path d="M47.616 7.74396C47.36 7.74396 47.04 7.61596 46.848 7.42396L44.992 5.24796C44.672 4.86396 44.736 4.22396 45.12 3.90396C45.504 3.58396 46.144 3.64796 46.464 4.03196L48.32 6.20796C48.64 6.59196 48.576 7.23196 48.192 7.55196C48.064 7.67996 47.808 7.74396 47.616 7.74396Z" fill="#263357"/>
<path d="M69.376 24.128C69.184 24.128 69.056 24.064 68.928 24L66.432 22.528C65.984 22.272 65.792 21.696 66.112 21.248C66.368 20.8 66.944 20.608 67.392 20.928L69.888 22.4C70.336 22.656 70.528 23.232 70.208 23.68C70.016 23.936 69.696 24.128 69.376 24.128Z" fill="#263357"/>
<path d="M68.224 14.976C67.776 14.976 67.392 14.656 67.264 14.208C67.2 13.696 67.52 13.184 68.032 13.12L70.848 12.608C71.36 12.544 71.872 12.864 71.936 13.376C72 13.888 71.68 14.4 71.168 14.464L68.352 14.976C68.288 14.976 68.288 14.976 68.224 14.976Z" fill="#263357"/>
<path d="M64.7043 7.23197C64.5123 7.23197 64.2563 7.16797 64.0643 6.97597C63.6803 6.65597 63.6163 6.01597 63.9363 5.63197L65.7923 3.45597C66.1123 3.07197 66.7523 3.00797 67.1363 3.32797C67.5203 3.64797 67.5843 4.28797 67.2643 4.67197L65.4083 6.84797C65.2803 7.10397 64.9603 7.23197 64.7043 7.23197Z" fill="#263357"/>
<path d="M56.3198 37.184C53.6958 37.184 51.8398 35.392 51.8398 32.96C51.8398 32.448 52.2878 32 52.7998 32C53.3118 32 53.7598 32.448 53.7598 32.96C53.7598 34.304 54.7838 35.264 56.3198 35.264C57.8558 35.264 58.8798 34.304 58.8798 32.96C58.8798 32.448 59.3278 32 59.8398 32C60.3518 32 60.7998 32.448 60.7998 32.96C60.7998 35.392 58.9438 37.184 56.3198 37.184Z" fill="#263357"/>
<path d="M15.7436 30.464C15.2956 30.464 14.9116 30.144 14.7836 29.696C14.7836 29.632 14.5916 29.568 14.5276 29.504C13.9516 29.12 13.1196 28.544 12.6716 26.688C12.0316 23.872 12.7356 22.72 13.5036 22.208C14.2716 21.696 15.2316 21.76 16.0636 22.272C16.5116 22.592 16.5756 23.168 16.3196 23.616C15.9996 24.064 15.4236 24.128 14.9756 23.872C14.8476 23.808 14.7196 23.744 14.6556 23.808C14.5276 23.936 14.2076 24.576 14.5916 26.304C14.8476 27.392 15.2316 27.712 15.6796 27.968C16.0636 28.224 16.5756 28.608 16.7676 29.376C16.8956 29.888 16.5116 30.4 15.9996 30.528C15.8716 30.464 15.8076 30.464 15.7436 30.464Z" fill="#263357"/>
<path d="M40.0003 30.464C39.9363 30.464 39.8723 30.464 39.8083 30.464C39.2963 30.336 38.9763 29.888 39.0403 29.312C39.1683 28.544 39.7443 28.16 40.1283 27.904C40.5763 27.584 40.9603 27.328 41.2163 26.24C41.6003 24.512 41.3443 23.872 41.1523 23.744C41.0883 23.68 40.8963 23.744 40.8323 23.808C40.3843 24.128 39.8083 24 39.4883 23.552C39.1683 23.104 39.2963 22.528 39.7443 22.208C40.5123 21.632 41.5363 21.632 42.3043 22.144C43.0723 22.656 43.8403 23.872 43.1363 26.624C42.6883 28.416 41.8563 29.056 41.2803 29.44C41.1523 29.504 41.0243 29.632 41.0243 29.632C40.8963 30.144 40.5123 30.464 40.0003 30.464Z" fill="#263357"/>
<path d="M16.5121 25.664C16.1921 25.664 15.8721 25.472 15.6801 25.216C14.6561 23.616 14.0801 21.76 14.0801 19.84C14.0801 19.328 14.5281 18.88 15.0401 18.88C15.5521 18.88 16.0001 19.328 16.0001 19.84C16.0001 20.8 16.1921 21.696 16.5121 22.592C16.8961 22.208 17.3441 21.888 17.7281 21.76C18.4321 21.504 19.0721 21.632 19.5841 22.08C20.9281 23.424 31.9361 23.808 36.4161 21.888C36.4161 21.888 38.6561 21.056 39.2961 22.336C39.3601 22.4 39.3601 22.528 39.4241 22.592C39.6801 21.696 39.8081 20.736 39.8081 19.776C39.8081 19.264 40.1921 18.816 40.7041 18.816C41.2161 18.816 41.6641 19.2 41.6641 19.712C41.7281 21.632 41.2801 23.552 40.3201 25.28C40.1281 25.6 39.8081 25.792 39.4241 25.792C39.0401 25.792 38.7201 25.6 38.5921 25.216C38.4001 24.768 38.1441 24.384 37.9521 24C37.8881 23.872 37.8241 23.744 37.6961 23.616C37.5041 23.616 37.1841 23.68 37.0561 23.744C32.6401 25.664 20.8641 25.856 18.2401 23.68C17.9841 23.808 17.4721 24.256 17.3441 25.024C17.2801 25.408 17.0241 25.728 16.5761 25.856C16.6401 25.664 16.5761 25.664 16.5121 25.664Z" fill="#263357"/>
<path d="M27.9044 43.712C21.5684 43.712 16.0644 37.76 14.7844 29.632C14.7204 29.12 15.0404 28.608 15.6164 28.544C16.1284 28.48 16.6404 28.8 16.7044 29.376C17.7924 36.608 22.5284 41.856 27.9044 41.856C33.2804 41.856 38.0164 36.608 39.1044 29.376C39.1684 28.864 39.6804 28.48 40.1924 28.544C40.7044 28.608 41.0884 29.12 41.0244 29.632C39.7444 37.824 34.2404 43.712 27.9044 43.712Z" fill="#263357"/>
<path d="M24.6401 29.44H22.0801C21.5681 29.44 21.1201 28.992 21.1201 28.48C21.1201 27.968 21.5681 27.52 22.0801 27.52H24.6401C25.1521 27.52 25.6001 27.968 25.6001 28.48C25.6001 28.992 25.1521 29.44 24.6401 29.44Z" fill="#263357"/>
<path d="M34.2397 29.44H31.6797C31.1677 29.44 30.7197 28.992 30.7197 28.48C30.7197 27.968 31.1677 27.52 31.6797 27.52H34.2397C34.7517 27.52 35.1997 27.968 35.1997 28.48C35.1997 28.992 34.7517 29.44 34.2397 29.44Z" fill="#263357"/>
<path d="M27.9043 38.912C26.6243 38.912 25.3443 38.464 24.1283 37.568C23.6803 37.248 23.6163 36.672 23.9363 36.224C24.2563 35.776 24.8323 35.712 25.2803 36.032C27.0083 37.312 28.8003 37.312 30.5283 36.032C30.9763 35.712 31.5523 35.776 31.8723 36.224C32.1923 36.672 32.1283 37.248 31.6803 37.568C30.4643 38.4 29.1843 38.912 27.9043 38.912Z" fill="#263357"/>
</svg>
