<svg width="30" height="30" viewBox="0 0 30 30" fill="none" xmlns="http://www.w3.org/2000/svg">
<g clip-path="url(#clip0)">
<path d="M29.5961 18.4659C31.4999 10.4037 26.5074 2.32465 18.4451 0.420921C10.3829 -1.4828 2.30385 3.50967 0.400126 11.5719C-1.5036 19.6342 3.48887 27.7132 11.5511 29.6169C19.6134 31.5206 27.6924 26.5282 29.5961 18.4659Z" fill="#F1B941"/>
<path fill-rule="evenodd" clip-rule="evenodd" d="M8.74591 11.482C8.74591 11.2866 8.89249 11.14 9.08793 11.14C9.23451 11.14 14.0716 14.2182 14.3648 14.4136L15.1466 14.9022C15.3909 14.7557 15.6352 14.6091 15.8795 14.4136C16.3681 14.0716 20.912 11.14 21.0586 11.14C21.2541 11.14 21.4006 11.2377 21.4006 11.482C21.4006 11.6775 20.9609 11.9218 20.7166 12.0684C19.0065 13.1433 17.2475 14.2671 15.5374 15.342C15.4397 15.3908 15.2443 15.5374 15.0977 15.5374C14.9511 15.4886 9.96741 12.3127 9.08793 11.8241C8.89249 11.7752 8.74591 11.6775 8.74591 11.482ZM7.52441 10.7491V19.3485C7.52441 19.8371 7.86643 20.1791 8.35503 20.1791H21.7427C22.2313 20.1791 22.5733 19.7882 22.5733 19.3485V10.7491C22.5733 10.2605 22.2801 9.8208 21.7427 9.8208H8.30617C7.76871 9.8208 7.52441 10.2605 7.52441 10.7491Z" fill="white"/>
</g>
<defs>
<clipPath id="clip0">
<rect width="30" height="30" fill="white"/>
</clipPath>
</defs>
</svg>
