<svg width="38" height="38" viewBox="0 0 38 38" fill="none" xmlns="http://www.w3.org/2000/svg">
<path d="M33.585 22.5088C35.5135 14.4524 30.5459 6.35788 22.4895 4.4293C14.433 2.50073 6.33855 7.46835 4.40997 15.5248C2.48139 23.5813 7.44902 31.6757 15.5055 33.6043C23.5619 35.5329 31.6564 30.5653 33.585 22.5088Z" fill="#274D91"/>
<path fill-rule="evenodd" clip-rule="evenodd" d="M22.5663 16.7029H20.3188V15.2371C20.4653 13.8202 22.8106 14.1133 22.8106 14.1133V14.0156V11.7192C22.7129 11.7192 18.2178 10.6443 17.2895 14.0645C17.1429 14.5042 17.1429 16.4586 17.1429 16.7029H15.1885V19.3414H17.2406V26.5238H20.221V19.3414H22.5663L22.8106 16.7029H22.5663Z" fill="white"/>
</svg>
