<svg width="38" height="38" viewBox="0 0 38 38" fill="none" xmlns="http://www.w3.org/2000/svg">
<path d="M33.5961 22.4654C35.4999 14.4032 30.5074 6.32416 22.4451 4.42043C14.3829 2.51671 6.30385 7.50918 4.40013 15.5714C2.4964 23.6337 7.48887 31.7127 15.5511 33.6164C23.6134 35.5202 31.6924 30.5277 33.5961 22.4654Z" fill="#D43D27"/>
<path fill-rule="evenodd" clip-rule="evenodd" d="M11.5247 18.9998C11.427 16.5569 13.5768 14.2604 16.0687 14.2604C17.339 14.1627 18.5605 14.6513 19.4889 15.4331C19.098 15.8728 18.7071 16.2637 18.2674 16.7034C17.4367 16.2148 16.4107 15.824 15.4335 16.166C13.87 16.6057 12.8928 18.4624 13.4791 20.0259C13.9677 21.6383 15.9221 22.5178 17.4367 21.8337C18.2185 21.5406 18.756 20.8077 19.0003 20.0259C18.0719 20.0259 17.1924 20.0259 16.2641 19.977C16.2641 19.4396 16.2641 18.9021 16.2641 18.3647C17.7788 18.3647 19.2934 18.3647 20.8081 18.3647C20.9058 19.6839 20.7104 21.1008 19.8309 22.1757C18.6582 23.6904 16.4595 24.1301 14.7006 23.5438C12.8439 22.9086 11.4758 21.0031 11.5247 18.9998ZM23.7885 16.9477C24.2283 16.9477 24.668 16.9477 25.1566 16.9477C25.1566 17.3875 25.1566 17.8761 25.1566 18.3158C25.5964 18.3158 26.085 18.3158 26.5247 18.3158C26.5247 18.7555 26.5247 19.2441 26.5247 19.6839C26.085 19.6839 25.5964 19.6839 25.1566 19.6839C25.1566 20.1236 25.1566 20.6122 25.1566 21.052C24.7169 21.052 24.2283 21.052 23.7885 21.052C23.7885 20.6122 23.7885 20.1236 23.7885 19.6839C23.3488 19.6839 22.8602 19.6839 22.4205 19.6839C22.4205 19.2441 22.4205 18.8044 22.4205 18.3158C22.8602 18.3158 23.3488 18.3158 23.7885 18.3158C23.7885 17.8761 23.7885 17.4363 23.7885 16.9477Z" fill="white"/>
</svg>
