<svg width="36" height="36" viewBox="0 0 36 36" fill="none" xmlns="http://www.w3.org/2000/svg">
<path d="M27.3857 0C25.0852 0 22.9219 0.896518 21.2949 2.52357L14.5867 9.23171C15.0994 9.16014 15.6116 9.08242 16.1356 9.08242C17.5806 9.08242 18.9965 9.36313 20.2981 9.88362L24.4766 5.7052C25.2544 4.92844 26.2871 4.49998 27.3857 4.49998C29.6544 4.49998 31.5001 6.34566 31.5001 8.61436C31.5001 9.71303 31.0716 10.7457 30.2949 11.5235L22.7737 19.0448C21.218 20.5983 18.511 20.5994 16.9553 19.0459L13.7759 22.2298C15.4019 23.8547 17.5651 24.7501 19.8645 24.7501C22.165 24.7501 24.3282 23.8536 25.9554 22.2265L33.4766 14.7052C35.1037 13.0782 36.0002 10.9149 36.0002 8.61436C36.0001 3.86392 32.1362 0 27.3857 0V0Z" fill="#C4C4C4"/>
<path d="M15.6626 26.155L11.5236 30.2939C10.7458 31.0707 9.71303 31.4992 8.61443 31.4992C6.34573 31.4992 4.50005 29.6535 4.50005 27.3848C4.50005 26.2862 4.92851 25.2534 5.70527 24.4756L13.2266 16.9543C14.7822 15.4009 17.4893 15.3998 19.0449 16.9532L22.2244 13.7693C18.9713 10.5196 13.2991 10.5185 10.0449 13.7726L2.52357 21.2939C0.896448 22.921 0 25.0842 0 27.3847C0 32.1352 3.86392 35.9991 8.61436 35.9991C10.9149 35.9991 13.0781 35.1026 14.7052 33.4755L21.3243 26.8564C20.8411 26.9213 20.3603 26.999 19.8644 26.999C18.3972 26.9991 16.9761 26.7058 15.6626 26.155Z" fill="#C4C4C4"/>
</svg>
