<svg width="32" height="21" viewBox="0 0 32 21" fill="none" xmlns="http://www.w3.org/2000/svg">
<path d="M30.7311 9.39471H1.54485C0.937958 9.39471 0.441406 9.89208 0.441406 10.5C0.441406 11.1079 0.937958 11.6052 1.54485 11.6052H30.7311C31.338 11.6052 31.8345 11.1079 31.8345 10.5C31.8345 9.89208 31.338 9.39471 30.7311 9.39471Z" fill="black"/>
<path d="M30.7311 18.4026H1.54485C0.937958 18.4026 0.441406 18.9 0.441406 19.5079C0.441406 20.1158 0.937958 20.6132 1.54485 20.6132H30.7311C31.338 20.6132 31.8345 20.1158 31.8345 19.5079C31.8345 18.9 31.338 18.4026 30.7311 18.4026Z" fill="black"/>
<path d="M30.7311 0.386841H1.54485C0.937958 0.386841 0.441406 0.884209 0.441406 1.4921C0.441406 2.1 0.937958 2.59737 1.54485 2.59737H30.7311C31.338 2.59737 31.8345 2.1 31.8345 1.4921C31.8345 0.884209 31.338 0.386841 30.7311 0.386841Z" fill="black"/>
</svg>
