<svg width="34" height="34" viewBox="0 0 34 34" fill="none" xmlns="http://www.w3.org/2000/svg">
<path d="M28.958 5.04198C27.3919 3.45254 25.5267 2.18874 23.4699 1.32342C21.4132 0.458098 19.2055 0.00835751 16.9741 0.000115379C14.7428 -0.00812675 12.5318 0.425293 10.4687 1.2754C8.40561 2.1255 6.53114 3.37548 4.95331 4.95331C3.37548 6.53114 2.1255 8.40561 1.2754 10.4687C0.425293 12.5318 -0.00812675 14.7428 0.000115379 16.9741C0.00835751 19.2055 0.458098 21.4132 1.32342 23.4699C2.18874 25.5267 3.45254 27.3919 5.04198 28.958C6.6081 30.5475 8.47329 31.8113 10.5301 32.6766C12.5868 33.5419 14.7945 33.9916 17.0259 33.9999C19.2572 34.0081 21.4682 33.5747 23.5313 32.7246C25.5944 31.8745 27.4689 30.6245 29.0467 29.0467C30.6245 27.4689 31.8745 25.5944 32.7246 23.5313C33.5747 21.4682 34.0081 19.2572 33.9999 17.0259C33.9916 14.7945 33.5419 12.5868 32.6766 10.5301C31.8113 8.47329 30.5475 6.6081 28.958 5.04198ZM25.9428 28.7707C23.3722 30.7297 20.2296 31.7906 16.9977 31.7906C13.7657 31.7906 10.6231 30.7297 8.05255 28.7707C7.85372 28.6197 7.7068 28.4106 7.63213 28.1723C7.55747 27.9341 7.55877 27.6785 7.63585 27.441C8.09604 26.134 8.83782 24.944 9.8087 23.9553C10.7796 22.9667 11.9559 22.2034 13.2543 21.7195C13.3365 21.6884 13.4089 21.6357 13.4638 21.5671C13.5187 21.4985 13.5542 21.4164 13.5667 21.3294C13.5791 21.2424 13.568 21.1536 13.5345 21.0724C13.5009 20.9911 13.4462 20.9203 13.3761 20.8674C12.3202 20.1035 11.5335 19.0246 11.129 17.7858C10.7244 16.5469 10.7228 15.2118 11.1243 13.9719C11.5257 12.7321 12.3097 11.6513 13.3637 10.8847C14.4177 10.1182 15.6874 9.70529 16.9906 9.70529C18.2939 9.70529 19.5636 10.1182 20.6176 10.8847C21.6715 11.6513 22.4555 12.7321 22.857 13.9719C23.2585 15.2118 23.2569 16.5469 22.8523 17.7858C22.4477 19.0246 21.6611 20.1035 20.6052 20.8674C20.535 20.9203 20.4803 20.9911 20.4468 21.0724C20.4133 21.1536 20.4022 21.2424 20.4146 21.3294C20.427 21.4164 20.4626 21.4985 20.5175 21.5671C20.5724 21.6357 20.6447 21.6884 20.7269 21.7195C22.023 22.2009 23.1978 22.9606 24.1685 23.9451C25.1392 24.9296 25.8823 26.1149 26.3454 27.4176C26.4294 27.6568 26.4357 27.9164 26.3634 28.1594C26.2911 28.4024 26.1439 28.6164 25.9428 28.7707Z" fill="white"/>
</svg>
