<svg width="78" height="80" viewBox="0 0 78 80" fill="none" xmlns="http://www.w3.org/2000/svg">
<path d="M0.968523 74.5763C0.451977 74.5763 0 74.1243 0 73.6077V63.406V63.3414C1.09766 48.3616 12.3971 42.2922 17.8854 42.4859C18.4019 42.4859 18.8539 42.9378 18.7893 43.519C18.7893 44.0355 18.3374 44.4875 17.7563 44.4229C14.0759 44.2938 3.03471 48.749 1.93705 63.4705V73.6077C1.93705 74.1243 1.48507 74.5763 0.968523 74.5763Z" fill="#263357"/>
<path d="M15.1736 73.9306C14.7216 73.9306 14.2696 73.6077 14.2051 73.0912L10.0081 45.8434C9.94358 45.3269 10.2664 44.8103 10.8475 44.7458C11.3641 44.6812 11.8806 45.004 11.9452 45.5851L16.1421 72.8329C16.2067 73.3495 15.8839 73.866 15.3027 73.9306C15.2382 73.9306 15.2382 73.9306 15.1736 73.9306Z" fill="#263357"/>
<path d="M36.2878 64.2454H20.1457C19.6292 64.2454 19.2418 63.858 19.1772 63.406L16.8527 43.4544C16.7882 42.9379 17.1756 42.4213 17.6921 42.3567C18.2087 42.2922 18.7252 42.6796 18.7898 43.1961L20.9851 62.3083H35.3838L37.7728 43.1961C37.8374 42.6796 38.2894 42.2922 38.8705 42.3567C39.387 42.4213 39.7745 42.9379 39.7099 43.4544L37.1917 63.406C37.1917 63.858 36.8043 64.2454 36.2878 64.2454Z" fill="#263357"/>
<path d="M40.4199 40.7425C39.6451 40.7425 38.8057 40.2906 37.9663 39.4512C37.5789 39.0638 37.5789 38.4826 37.9663 38.0952C38.3537 37.7078 38.9349 37.7078 39.3223 38.0952C39.9034 38.6764 40.2908 38.8055 40.4199 38.8055C40.5491 38.8055 40.8719 38.5472 41.453 37.4496C41.6467 37.1267 41.9696 36.933 42.2924 36.933C42.8735 36.933 43.6483 36.6102 44.0357 35.9645C44.294 35.5125 44.294 34.996 44.0357 34.4149C43.9066 34.1566 43.9066 33.7692 44.1003 33.5109C44.2295 33.2526 44.5523 33.0589 44.8751 33.0589C45.7145 32.9944 46.2311 32.3487 46.3602 31.8321C46.4893 31.251 46.4248 30.4762 45.7145 30.0242C45.3271 29.7659 45.198 29.1848 45.3917 28.7329C45.5854 28.3454 46.0374 28.1517 46.4248 28.2809C46.4893 28.0226 46.4248 27.6352 46.2311 27.1186C46.0374 26.6021 46.2311 26.0856 46.7476 25.8273C47.2642 25.6336 47.7807 25.8273 48.039 26.3438C48.5555 27.5706 48.491 28.862 47.9098 29.6368C48.3618 30.4116 48.491 31.3801 48.2327 32.3487C47.9098 33.4463 47.1996 34.3503 46.1665 34.7377C46.2956 35.5771 46.1665 36.3519 45.7145 37.0621C45.1334 38.0307 44.0358 38.6764 42.9381 38.8701C42.4215 39.774 41.7759 40.6134 40.7428 40.8071C40.6136 40.7425 40.5491 40.7425 40.4199 40.7425Z" fill="#263357"/>
<path d="M15.2384 40.7425C15.1092 40.7425 14.9801 40.7425 14.9155 40.7425C13.8824 40.5488 13.2368 39.7094 12.7202 38.8055C11.6226 38.6118 10.5249 37.9661 9.94378 36.9976C9.4918 36.2873 9.36267 35.5125 9.4918 34.6731C8.52328 34.2211 7.74846 33.3818 7.42562 32.2841C7.16735 31.3156 7.29649 30.347 7.74846 29.5722C7.29649 29.0557 7.16735 28.2163 7.29649 27.2478C7.42562 26.4084 7.8776 25.4399 8.65242 24.7942C8.0713 23.6965 8.26501 22.3406 8.91069 21.3721C9.68551 20.1453 11.0414 19.6933 12.1391 20.2098C12.5911 20.4681 12.7848 21.0492 12.5911 21.5012C12.3328 21.9532 11.7517 22.1469 11.2997 21.9532C11.106 21.8886 10.7832 22.1469 10.5895 22.4052C10.3312 22.8571 10.0084 23.6965 10.7832 24.3422C11.0414 24.5359 11.1706 24.9233 11.106 25.2462C11.0414 25.569 10.7832 25.8918 10.4603 26.021C9.75008 26.2792 9.4918 26.8604 9.36267 27.2478C9.23353 27.6997 9.23353 28.0226 9.23353 28.2809C9.62094 28.2163 10.0729 28.41 10.2666 28.7328C10.5249 29.1848 10.3958 29.7014 10.0083 30.0242C9.2981 30.5408 9.16896 31.3156 9.36267 31.8321C9.4918 32.4132 10.0083 32.9943 10.8477 33.0589C11.1706 33.0589 11.4289 33.2526 11.6226 33.5109C11.7517 33.7692 11.8163 34.1566 11.6871 34.4148C11.4289 34.996 11.4289 35.5125 11.6871 35.9645C12.0745 36.6102 12.8494 36.933 13.4305 36.933C13.8179 36.933 14.1407 37.1267 14.2699 37.4495C14.851 38.5472 15.1738 38.7409 15.3029 38.8055C15.4966 38.8055 15.8841 38.6763 16.4006 38.0952C16.788 37.7078 17.3691 37.7078 17.7565 38.0952C18.1439 38.4826 18.1439 39.0638 17.7565 39.4512C16.8526 40.2905 16.0778 40.7425 15.2384 40.7425Z" fill="#263357"/>
<path d="M44.4234 17.498C43.9069 17.498 43.4549 17.046 43.4549 16.5295C43.4549 8.45843 36.8689 1.93705 28.8625 1.93705C20.7914 1.93705 14.2701 8.45843 14.2701 16.5295C14.2701 17.046 13.8181 17.498 13.3015 17.498C12.785 17.498 12.333 17.046 12.333 16.5295C12.333 7.42534 19.7584 0 28.8625 0C37.9666 0 45.3919 7.42534 45.3919 16.5295C45.3919 17.046 44.94 17.498 44.4234 17.498Z" fill="#263357"/>
<path d="M37.5784 27.3124C34.9312 27.3124 32.6067 27.1187 31.1216 26.7958C22.7278 24.9233 14.8504 21.3075 14.7859 21.3075C14.2693 21.1138 14.0756 20.5327 14.3339 20.0162C14.5276 19.4996 15.1087 19.3059 15.6253 19.5642C15.6898 19.6287 23.3734 23.1154 31.5736 24.9233C37.4493 26.2147 50.0401 24.7296 51.0732 23.0509C50.8149 22.2115 47.5219 20.0807 43.9061 18.4019H29.3783L13.8173 17.7563C13.3008 17.7563 12.8488 17.3043 12.9134 16.7232C12.9134 16.2066 13.3654 15.7546 13.9465 15.8192L29.4429 16.4649H44.0353C44.1644 16.4649 44.2935 16.4649 44.4227 16.5295C48.6196 18.4019 53.4622 21.1784 52.8811 23.4383C52.2354 26.1501 44.0353 27.3124 37.5784 27.3124Z" fill="#263357"/>
<path d="M37.1263 17.1106C36.6743 17.1106 36.2224 16.7232 36.1578 16.2712C34.931 6.52138 28.8616 2.13074 28.797 2.06617C28.3451 1.74333 28.2805 1.16221 28.5388 0.710237C28.8616 0.25826 29.4427 0.193692 29.8947 0.451964C30.153 0.645669 36.7389 5.35915 38.0303 15.9483C38.0949 16.4649 37.7074 16.9814 37.1909 17.046C37.1909 17.1106 37.1909 17.1106 37.1263 17.1106Z" fill="#263357"/>
<path d="M20.3388 17.1106C20.2743 17.1106 20.2743 17.1106 20.2097 17.1106C19.6932 17.046 19.3058 16.5295 19.3703 16.0129C20.7263 5.35917 27.2476 0.710259 27.5059 0.516555C27.9579 0.193714 28.539 0.32285 28.8618 0.774828C29.1847 1.22681 29.0556 1.80792 28.6036 2.13076C28.539 2.19533 22.4696 6.58597 21.2428 16.3358C21.2428 16.7232 20.7908 17.1106 20.3388 17.1106Z" fill="#263357"/>
<path d="M52.7526 64.891C52.5589 64.891 52.4298 64.8265 52.3006 64.7619C51.8487 64.5036 51.6549 63.9225 51.9132 63.4705L53.2692 61.0815L40.3555 49.9112C40.0327 49.5884 39.9035 49.1364 40.1618 48.6844L44.9399 40.226C45.069 40.0323 45.2627 39.8386 45.521 39.774C45.7792 39.7094 46.0375 39.7094 46.2312 39.8386L48.4911 41.1299C48.9431 41.3882 49.1368 41.9693 48.8785 42.4213C48.6202 42.8733 48.0391 43.067 47.5871 42.8087L46.1666 42.0339L42.2926 48.9427L55.1416 60.0484C55.4645 60.3713 55.5936 60.8232 55.3353 61.2752L53.592 64.4391C53.3983 64.7619 53.0754 64.891 52.7526 64.891Z" fill="#263357"/>
<path d="M75.351 52.2357L52.6876 39.4512C51.6545 38.8701 50.2986 39.2575 49.7175 40.2906L47.393 44.3584C46.8119 45.3915 47.1993 46.7474 48.2324 47.3285L70.8958 60.0484C71.9289 60.6296 73.2849 60.2421 73.866 59.2091L76.1904 55.1413C76.7715 54.1727 76.3841 52.8168 75.351 52.2357Z" fill="#61C4F2"/>
<path d="M71.9934 61.3398C71.4768 61.3398 70.9603 61.2107 70.4438 60.9524L47.7803 48.2325C46.2952 47.3931 45.7141 45.456 46.5535 43.971L48.878 39.9032C49.2654 39.1929 49.9756 38.6118 50.7505 38.4181C51.5898 38.1598 52.4292 38.289 53.1395 38.6764L75.8029 51.3963C77.288 52.2357 77.8691 54.1727 77.0297 55.6578L74.7053 59.7256C74.1241 60.7587 73.0911 61.3398 71.9934 61.3398ZM51.6544 40.1614C51.5253 40.1614 51.4607 40.1614 51.3316 40.226C51.0087 40.2906 50.7505 40.5488 50.6213 40.8071L48.2969 44.8749C48.1677 45.1332 48.1032 45.456 48.1677 45.7789C48.2323 46.1017 48.4906 46.36 48.7488 46.4891L71.4123 59.209C71.9934 59.5319 72.7682 59.3382 73.0911 58.7571L75.4155 54.6893C75.7384 54.1082 75.5446 53.3333 74.9635 53.0105L52.2355 40.3551C52.0418 40.226 51.8481 40.1614 51.6544 40.1614Z" fill="#263357"/>
<path d="M45.9084 80C45.3918 80 44.8753 79.8709 44.3587 79.6126L43.6485 79.2252C42.1634 78.3858 41.5823 76.4487 42.4217 74.9637L48.2328 64.6973C49.0722 63.2123 51.0093 62.6312 52.4943 63.4705L53.2046 63.858C54.6896 64.6973 55.2708 66.6344 54.4314 68.1195L48.6202 78.3858C48.1037 79.4189 47.006 80 45.9084 80ZM51.0093 65.0202C50.5573 65.0202 50.1699 65.2139 49.9762 65.6659L44.2296 75.9322C43.9068 76.5133 44.1005 77.2881 44.6816 77.611L45.3918 77.9984C45.9729 78.3212 46.7478 78.1275 47.0706 77.5464L52.8172 67.2801C53.14 66.699 52.9463 65.9887 52.3652 65.6013L51.6549 65.2139C51.3967 65.0847 51.203 65.0202 51.0093 65.0202Z" fill="#263357"/>
<path d="M60.0484 21.6303L54.2373 35.8354L74.8991 48.1033C74.8991 48.1033 78.7732 44.8749 75.5448 41.6465C70.7022 36.8039 67.7966 42.2922 68.4423 36.481C69.088 30.6699 68.7651 30.9927 66.5053 28.7329C65.2139 27.4415 63.2769 28.0872 63.2769 20.9847C63.2769 13.8822 60.0484 21.6303 60.0484 21.6303Z" fill="#9043C3"/>
<path d="M28.1519 42.4859C21.7596 42.4859 16.2067 36.481 14.9154 28.2809C14.8508 27.7643 15.1736 27.2478 15.7548 27.1832C16.2713 27.1187 16.7879 27.4415 16.8524 28.0226C17.9501 35.3188 22.7281 40.6134 28.1519 40.6134C33.5756 40.6134 38.3536 35.3188 39.4513 28.0226C39.5159 27.5061 40.0324 27.1187 40.5489 27.1832C41.0655 27.2478 41.4529 27.7643 41.3883 28.2809C40.097 36.5456 34.5441 42.4859 28.1519 42.4859Z" fill="#263357"/>
<path d="M24.8589 28.0872H22.2761C21.7596 28.0872 21.3076 27.6352 21.3076 27.1186C21.3076 26.6021 21.7596 26.1501 22.2761 26.1501H24.8589C25.3754 26.1501 25.8274 26.6021 25.8274 27.1186C25.8274 27.6352 25.3754 28.0872 24.8589 28.0872Z" fill="#263357"/>
<path d="M34.5444 28.0872H31.9617C31.4451 28.0872 30.9932 27.6352 30.9932 27.1186C30.9932 26.6021 31.4451 26.1501 31.9617 26.1501H34.5444C35.061 26.1501 35.5129 26.6021 35.5129 27.1186C35.5129 27.6352 35.061 28.0872 34.5444 28.0872Z" fill="#263357"/>
<path d="M28.1513 37.6433C26.8599 37.6433 25.5686 37.1913 24.3418 36.2873C23.8898 35.9645 23.8252 35.3834 24.1481 34.9314C24.4709 34.4794 25.052 34.4149 25.504 34.7377C27.2473 36.0291 29.0552 36.0291 30.7986 34.7377C31.2506 34.4149 31.8317 34.4794 32.1545 34.9314C32.4774 35.3834 32.4128 35.9645 31.9608 36.2873C30.734 37.1267 29.4427 37.6433 28.1513 37.6433Z" fill="#263357"/>
</svg>
