<svg width="75" height="80" viewBox="0 0 75 80" fill="none" xmlns="http://www.w3.org/2000/svg">
<path d="M38.7406 50.9443H18.9827L16.0772 39.6449L8.39355 41.9048L11.622 59.9839V67.7321H41.3233V59.9839L43.2604 52.2357L38.7406 50.9443Z" fill="#61C4F2"/>
<path d="M0.968523 68.3777C0.451977 68.3777 0 67.9258 0 67.4092V55.5287V55.4641C1.03309 42.0339 10.8475 38.7409 16.4649 38.9992C16.9814 38.9992 17.4334 39.4512 17.3688 40.0323C17.3688 40.5488 16.9169 41.0008 16.3358 40.9362C15.0444 40.8717 3.03471 40.8717 1.93705 55.5287V67.4092C1.93705 67.9258 1.48507 68.3777 0.968523 68.3777Z" fill="#263357"/>
<path d="M11.2996 67.9903C10.783 67.9903 10.3311 67.5384 10.3311 67.0218V60.3067C10.3311 59.7902 10.783 59.3382 11.2996 59.3382C11.8161 59.3382 12.2681 59.7902 12.2681 60.3067V67.0218C12.2681 67.5384 11.8807 67.9903 11.2996 67.9903Z" fill="#263357"/>
<path d="M17.2395 22.9863C16.9812 22.9863 16.6584 22.8571 16.4646 22.5989C16.4001 22.5343 16.3355 22.4697 16.3355 22.4052C16.3355 22.4052 16.3355 22.3406 16.2709 22.3406C15.6898 21.6949 15.1733 20.9201 14.7859 20.1453C12.7197 16.0775 13.9465 10.8475 13.9465 10.7829C15.8835 3.35755 22.5341 0 28.2806 0C35.0603 0 40.484 4.2615 42.1628 10.8475C42.1628 10.912 43.3896 16.142 41.3234 20.2098C40.936 20.9847 40.4195 21.7595 39.8383 22.4052C39.8383 22.4052 39.8383 22.4697 39.7738 22.4697C39.7092 22.5343 39.7092 22.5989 39.6446 22.5989C39.3864 22.9217 38.9344 23.0508 38.547 22.9217C38.1596 22.7926 37.9013 22.4052 37.9013 22.0178C37.9013 20.339 37.7076 18.6602 37.2556 17.046C37.0619 16.3358 36.8682 15.6255 36.5454 14.9153C35.9642 15.109 35.3186 15.4318 34.6729 15.7546C32.9295 16.594 30.9279 17.5626 28.0224 17.5626C25.1168 17.5626 23.1152 16.594 21.3718 15.7546C20.7261 15.4318 20.0805 15.109 19.4994 14.9153C19.2411 15.6255 18.9828 16.3358 18.7891 16.9814C18.3371 18.5956 18.1434 20.2744 18.1434 21.9532C18.1434 22.3406 17.8852 22.728 17.4977 22.8571C17.4977 22.9217 17.3686 22.9863 17.2395 22.9863ZM37.191 12.7845C37.5784 12.7845 37.9013 12.9782 38.095 13.3656C38.547 14.4633 38.9344 15.4964 39.1927 16.5295C39.4509 17.3688 39.5801 18.2728 39.7092 19.1122C41.0651 16.2066 40.484 12.2034 40.2903 11.2994C38.547 4.39064 32.7358 1.93705 28.2806 1.93705C23.3089 1.93705 17.5623 4.84262 15.9481 11.2994C15.6898 12.2034 15.1733 16.2066 16.5292 19.1122C16.6584 18.2082 16.7875 17.3688 17.0458 16.5295C17.304 15.4964 17.6914 14.4633 18.1434 13.3656C18.3371 12.9136 18.7891 12.7199 19.2411 12.7845C20.3387 13.0428 21.3073 13.4948 22.3404 14.0113C24.0191 14.7861 25.6979 15.6255 28.1515 15.6255C30.6051 15.6255 32.3484 14.7861 33.9626 14.0113C34.9957 13.4948 35.9642 13.0428 37.0619 12.7845C37.0619 12.7845 37.1265 12.7845 37.191 12.7845Z" fill="#263357"/>
<path d="M73.9306 61.9209C73.4141 61.9209 72.9621 61.4689 72.9621 60.9524V8.3293H44.2293C43.7127 8.3293 43.2607 7.87732 43.2607 7.36077C43.2607 6.84423 43.7127 6.39225 44.2293 6.39225H73.9306C74.4472 6.39225 74.8992 6.84423 74.8992 7.36077V60.9524C74.8992 61.4689 74.4472 61.9209 73.9306 61.9209Z" fill="#263357"/>
<path d="M50.6863 36.7393C50.1698 36.7393 49.7178 36.2873 49.7178 35.7708V10.5892C49.7178 10.0726 50.1698 9.62066 50.6863 9.62066C51.2028 9.62066 51.6548 10.0726 51.6548 10.5892V35.7708C51.6548 36.2873 51.2028 36.7393 50.6863 36.7393Z" fill="#263357"/>
<path d="M57.7887 35.448H54.5603C54.0438 35.448 53.5918 34.996 53.5918 34.4794C53.5918 33.9629 54.0438 33.5109 54.5603 33.5109H57.7887C58.3053 33.5109 58.7573 33.9629 58.7573 34.4794C58.7573 34.996 58.3053 35.448 57.7887 35.448Z" fill="#263357"/>
<path d="M42.9376 52.5585H51.9771L53.5913 65.1493L47.7802 69.0234H67.1506L63.2766 65.1493L61.6623 52.5585H68.442C69.346 52.5585 70.0562 51.8483 70.0562 50.9443V41.2591C70.0562 40.3551 69.346 39.6449 68.442 39.6449H42.9376L39.0635 42.2276V50.6215L42.9376 52.5585Z" fill="#9043C3"/>
<path d="M51.9779 53.5271H42.9383C42.8092 53.5271 42.6155 53.4625 42.4863 53.3979L38.6122 51.4609C38.2894 51.3317 38.0957 51.0089 38.0957 50.6215V47.3931C38.0957 46.8765 38.5477 46.4246 39.0642 46.4246C39.5808 46.4246 40.0327 46.8765 40.0327 47.3931V50.0404L43.1966 51.59H51.9779C52.4944 51.59 52.9464 52.042 52.9464 52.5585C52.9464 53.0751 52.4944 53.5271 51.9779 53.5271Z" fill="#263357"/>
<path d="M68.442 53.527H61.6624C61.1458 53.527 60.6938 53.0751 60.6938 52.5585C60.6938 52.042 61.1458 51.59 61.6624 51.59H68.442C68.8294 51.59 69.0877 51.2672 69.0877 50.9443V41.2591C69.0877 40.8717 68.7649 40.6134 68.442 40.6134H43.2604L40.032 42.7441V42.8733C40.032 43.3898 39.58 43.8418 39.0635 43.8418H33.1878L31.7027 46.7474L33.1878 49.6529H39.0635C39.58 49.6529 40.032 50.1049 40.032 50.6215C40.032 51.138 39.58 51.59 39.0635 51.59H32.6067C32.2193 51.59 31.8964 51.3963 31.7673 51.0734L29.8303 47.1994C29.7011 46.9411 29.7011 46.6182 29.8303 46.36L31.7673 42.4859C31.961 42.163 32.2838 41.9693 32.6067 41.9693H38.1595C38.2241 41.7756 38.3533 41.5819 38.547 41.5174L42.421 38.9346C42.5502 38.8055 42.7439 38.7409 42.9376 38.7409H68.442C69.8625 38.7409 71.0248 39.9031 71.0248 41.3236V51.0089C71.0248 52.3648 69.8625 53.527 68.442 53.527Z" fill="#263357"/>
<path d="M30.0243 47.7159H22.2761C21.7596 47.7159 21.3076 47.2639 21.3076 46.7474C21.3076 46.2308 21.7596 45.7789 22.2761 45.7789H30.0243C30.5409 45.7789 30.9928 46.2308 30.9928 46.7474C30.9928 47.2639 30.5409 47.7159 30.0243 47.7159Z" fill="#263357"/>
<path d="M64.8914 80H49.395C47.458 80 45.8438 78.3858 45.8438 76.4488V68.7006C45.8438 68.184 46.2957 67.7321 46.8123 67.7321H60.759C61.2755 67.7321 61.7275 68.184 61.7275 68.7006C61.7275 69.2171 61.2755 69.6691 60.759 69.6691H47.7808V76.4488C47.7808 77.3527 48.491 78.063 49.395 78.063H64.8914C65.7953 78.063 66.5056 77.3527 66.5056 76.4488V68.7006C66.5056 68.184 66.9576 67.7321 67.4741 67.7321C67.9906 67.7321 68.4426 68.184 68.4426 68.7006V76.4488C68.4426 78.3858 66.8284 80 64.8914 80Z" fill="#263357"/>
<path d="M67.4734 69.6691C67.2797 69.6691 67.0214 69.6045 66.8277 69.4754L62.9536 66.247C62.7599 66.1178 62.6307 65.8595 62.6307 65.6658L60.6937 52.7522C60.6291 52.2357 60.952 51.7191 61.5331 51.6545C62.0496 51.59 62.5662 51.9128 62.6307 52.4939L64.5032 65.0202L68.119 67.9903C68.5064 68.3131 68.571 68.9588 68.2482 69.3462C68.0545 69.5399 67.7316 69.6691 67.4734 69.6691Z" fill="#263357"/>
<path d="M47.4574 69.6691C47.1345 69.6691 46.8117 69.4754 46.618 69.2171C46.3597 68.7651 46.4888 68.184 46.9408 67.8612L52.8165 64.3099L51.0086 52.6877C50.944 52.1711 51.2669 51.6546 51.7834 51.59C52.3 51.5254 52.8165 51.8483 52.8811 52.3648L54.8181 64.6328C54.8827 65.0202 54.689 65.4076 54.3661 65.6013L47.9093 69.4754C47.7802 69.6045 47.6511 69.6691 47.4574 69.6691Z" fill="#263357"/>
<path d="M52.6231 61.9209C52.494 61.9209 52.4294 61.9209 52.3003 61.8563L50.3632 61.2107C50.0404 61.0815 49.8467 60.8878 49.7176 60.565L48.4262 56.0452C48.3616 55.7869 48.3616 55.5286 48.4908 55.2704C48.6199 55.0121 48.8136 54.883 49.0719 54.8184L51.6546 54.1727C52.1712 54.0436 52.6877 54.3664 52.8168 54.883C52.946 55.3995 52.6231 55.9161 52.1066 56.0452L50.4924 56.4326L51.3963 59.4673L52.946 60.0484C53.4625 60.2421 53.7208 60.7587 53.5271 61.2752C53.398 61.6626 53.0105 61.9209 52.6231 61.9209Z" fill="#263357"/>
<path d="M64.8908 45.1332H59.7254C59.2088 45.1332 58.7568 44.6812 58.7568 44.1647C58.7568 43.6481 59.2088 43.1961 59.7254 43.1961H64.8908C65.4074 43.1961 65.8593 43.6481 65.8593 44.1647C65.8593 44.6812 65.4074 45.1332 64.8908 45.1332Z" fill="#263357"/>
<path d="M64.8908 49.0073H59.7254C59.2088 49.0073 58.7568 48.5553 58.7568 48.0388C58.7568 47.5222 59.2088 47.0702 59.7254 47.0702H64.8908C65.4074 47.0702 65.8593 47.5222 65.8593 48.0388C65.8593 48.5553 65.4074 49.0073 64.8908 49.0073Z" fill="#263357"/>
<path d="M15.8843 25.5044C15.4323 25.5044 15.0449 25.1816 14.9157 24.7296C14.9157 24.6651 14.722 24.6005 14.6575 24.5359C14.0764 24.1485 13.237 23.5674 12.785 21.6949C11.881 17.95 13.6244 17.046 14.1409 16.9169C14.6575 16.7232 15.174 17.046 15.3677 17.5625C15.5614 18.0791 15.2386 18.5956 14.722 18.7893C14.5283 18.8539 14.2055 19.5642 14.6575 21.3075C14.9157 22.4052 15.3031 22.728 15.7551 22.9863C16.1425 23.2445 16.6591 23.632 16.8528 24.4068C16.9819 24.9233 16.5945 25.4399 16.078 25.569C16.0134 25.5044 15.9488 25.5044 15.8843 25.5044Z" fill="#263357"/>
<path d="M40.3546 25.5044C40.2901 25.5044 40.2255 25.5044 40.1609 25.5044C39.6444 25.3753 39.3215 24.9233 39.3861 24.3422C39.5153 23.5674 40.0964 23.18 40.4838 22.9217C40.9358 22.5989 41.3232 22.3406 41.5814 21.2429C42.0334 19.3705 41.646 18.7894 41.5169 18.7248C41.0003 18.5956 40.742 18.0145 40.8712 17.498C41.0003 16.9814 41.5814 16.7232 42.098 16.8523C42.6791 17.046 44.4224 17.8854 43.5185 21.6304C43.0665 23.4383 42.2271 24.0839 41.646 24.4714C41.5169 24.5359 41.3877 24.6651 41.3877 24.6651C41.2586 25.1816 40.8712 25.5044 40.3546 25.5044Z" fill="#263357"/>
<path d="M28.1519 38.87C21.7596 38.87 16.2067 32.8652 14.9154 24.665C14.8508 24.1485 15.1736 23.632 15.7548 23.5674C16.2713 23.5028 16.7879 23.8257 16.8524 24.4068C17.9501 31.703 22.7281 36.9976 28.1519 36.9976C33.5756 36.9976 38.3536 31.703 39.4513 24.4068C39.5159 23.8902 40.0324 23.5028 40.5489 23.5674C41.0655 23.632 41.4529 24.1485 41.3883 24.665C40.097 32.9298 34.5441 38.87 28.1519 38.87Z" fill="#263357"/>
<path d="M24.8589 24.4713H22.2761C21.7596 24.4713 21.3076 24.0194 21.3076 23.5028C21.3076 22.9863 21.7596 22.5343 22.2761 22.5343H24.8589C25.3754 22.5343 25.8274 22.9863 25.8274 23.5028C25.8274 24.0194 25.3754 24.4713 24.8589 24.4713Z" fill="#263357"/>
<path d="M34.5444 24.4713H31.9617C31.4451 24.4713 30.9932 24.0194 30.9932 23.5028C30.9932 22.9863 31.4451 22.5343 31.9617 22.5343H34.5444C35.061 22.5343 35.5129 22.9863 35.5129 23.5028C35.5129 24.0194 35.061 24.4713 34.5444 24.4713Z" fill="#263357"/>
<path d="M28.1513 34.0274C26.8599 34.0274 25.5686 33.5755 24.3418 32.6715C23.8898 32.3487 23.8252 31.7676 24.1481 31.3156C24.4709 30.8636 25.052 30.799 25.504 31.1219C27.2473 32.4132 29.0552 32.4132 30.7986 31.1219C31.2506 30.799 31.8317 30.8636 32.1545 31.3156C32.4774 31.7676 32.4128 32.3487 31.9608 32.6715C30.734 33.5109 29.4427 34.0274 28.1513 34.0274Z" fill="#263357"/>
</svg>
