<svg width="95" height="82" viewBox="0 0 95 82" fill="none" xmlns="http://www.w3.org/2000/svg">
<path d="M94.2307 3.78953C94.6867 1.66681 92.6056 -0.123044 90.5755 0.651579L2.51691 34.2673C1.4571 34.672 0.756104 35.6878 0.753911 36.8221C0.751719 37.9566 1.4487 38.9752 2.50705 39.3839L27.2444 48.9378V79.03C27.2444 80.2993 28.116 81.4024 29.351 81.696C30.5778 81.9878 31.8571 81.4041 32.4322 80.2631L42.6632 59.9607L67.631 78.4901C69.1497 79.6173 71.3327 78.9004 71.8854 77.089C95.197 0.657611 94.1892 3.98155 94.2307 3.78953ZM72.4936 13.4208L29.5964 43.9708L11.1392 36.8424L72.4936 13.4208ZM32.7252 48.4711L70.1169 21.8421C37.9419 55.7849 39.6223 53.9983 39.482 54.1872C39.2735 54.4676 39.8446 53.3746 32.7252 67.5023V48.4711ZM67.7766 71.773L45.7992 55.4628L85.5372 13.5414L67.7766 71.773Z" fill="#9043C3"/>
</svg>
