<svg width="26" height="26" viewBox="0 0 26 26" fill="none" xmlns="http://www.w3.org/2000/svg">
<path d="M25.7587 24.237L18.2543 16.7326C19.6777 14.9754 20.5345 12.7414 20.5345 10.3091C20.5345 4.67068 15.9472 0.083374 10.3087 0.083374C4.67026 0.083374 0.0830078 4.67068 0.0830078 10.3091C0.0830078 15.9476 4.67031 20.5349 10.3088 20.5349C12.741 20.5349 14.975 19.678 16.7323 18.2547L24.2367 25.7591C24.4469 25.9693 24.7876 25.9693 24.9978 25.7591L25.7588 24.9982C25.9689 24.788 25.9689 24.4472 25.7587 24.237ZM10.3088 18.3821C5.85708 18.3821 2.23581 14.7608 2.23581 10.3091C2.23581 5.85745 5.85708 2.23618 10.3088 2.23618C14.7604 2.23618 18.3817 5.85745 18.3817 10.3091C18.3817 14.7608 14.7604 18.3821 10.3088 18.3821Z" fill="white"/>
</svg>
