<svg width="84" height="72" viewBox="0 0 84 72" fill="none" xmlns="http://www.w3.org/2000/svg">
<path d="M80.4135 0H3.58635C1.91766 0 0.560059 1.3576 0.560059 3.0263V68.0556C0.560059 69.7243 1.91766 71.0819 3.58635 71.0819H80.4135C82.0822 71.0819 83.4398 69.7243 83.4398 68.0556V3.0263C83.4398 1.3576 82.0822 0 80.4135 0ZM78.5836 4.85624V43.2863L63.3105 28.0125C62.3146 27.0185 60.6952 27.0191 59.6999 28.0144L38.0992 49.6152L24.3012 35.8179C23.8188 35.3348 23.177 35.0686 22.4941 35.0686C21.8118 35.0686 21.1706 35.3342 20.6882 35.8166L5.4163 51.0885V4.85624H78.5836ZM5.4163 66.2257V57.9562L22.4941 40.8784L36.2913 54.6757C36.7744 55.1588 37.4162 55.4256 38.0992 55.4256C38.7808 55.4256 39.4226 55.1594 39.9044 54.6769L61.5058 33.0755L78.5842 50.1539V66.2257H5.4163Z" fill="#C4C4C4"/>
</svg>
