<svg width="137" height="68" viewBox="0 0 137 68" fill="none" xmlns="http://www.w3.org/2000/svg">
<path fill-rule="evenodd" clip-rule="evenodd" d="M113.916 16.7522C114.616 15.9522 115.116 14.8522 116.016 14.1522C121.116 10.5522 125.316 6.05225 129.716 1.55225C130.116 1.15225 130.516 0.652249 131.016 0.352249C131.916 -0.347751 133.616 0.05225 134.116 1.05225C134.216 1.25225 134.416 1.35225 134.416 1.55225C135.016 5.95225 135.716 10.2522 136.116 14.6522C136.216 15.7522 135.616 16.8522 135.216 18.6522C134.216 17.5522 133.516 17.1523 133.416 16.5522C132.616 13.9522 131.816 11.2523 131.216 8.95225C129.716 7.85225 128.916 8.45225 128.216 9.15225C125.116 11.9522 122.016 14.7522 118.816 17.5522C117.016 18.9522 115.416 18.8522 113.916 16.7522Z" fill="#252525"/>
<path fill-rule="evenodd" clip-rule="evenodd" d="M115.615 36.8523C116.015 41.8523 113.815 45.4523 110.515 48.3523C109.815 48.9523 108.715 49.3523 107.815 49.3523C107.215 49.3523 106.415 48.7523 106.015 48.1523C105.715 47.8523 105.815 46.8523 106.115 46.5523C109.315 43.2523 112.515 40.0523 115.615 36.8523Z" fill="#252525"/>
<path fill-rule="evenodd" clip-rule="evenodd" d="M126.116 16.8523C126.716 18.0523 127.216 18.5523 127.216 19.0523C126.916 23.1523 125.616 26.8523 123.416 30.2523C122.316 31.9523 121.416 32.0523 118.716 30.3523C120.916 26.0523 122.216 21.2523 126.116 16.8523Z" fill="#252525"/>
<path fill-rule="evenodd" clip-rule="evenodd" d="M60.2152 64.2522C55.8152 67.6522 51.6152 67.2522 47.3152 66.0522C46.9152 65.9522 46.6152 65.6522 46.4152 65.3522C46.1152 64.8522 45.6152 64.1522 45.7152 63.7522C46.0152 63.1522 46.6152 62.3522 47.2152 62.1522C48.1152 61.9522 49.1152 62.1522 50.1152 62.2522C52.8152 62.5522 55.6152 62.7522 58.3152 63.1522C58.9152 63.2522 59.4152 63.7522 60.2152 64.2522Z" fill="#252525"/>
<path fill-rule="evenodd" clip-rule="evenodd" d="M71.2153 67.1523C70.4153 67.0523 69.1153 66.9523 68.1153 66.5523C67.6153 66.3523 67.1153 65.4523 66.9153 64.8523C66.8153 64.4523 67.3153 63.5523 67.7153 63.4523C71.5153 62.4523 75.4153 62.3523 79.4153 62.5523C79.6153 62.5523 80.0153 63.0523 80.1153 63.4523C80.2153 63.7523 80.1153 64.2523 79.9153 64.5523C77.4153 66.6523 74.5153 66.9523 71.2153 67.1523Z" fill="#252525"/>
<path fill-rule="evenodd" clip-rule="evenodd" d="M99.6157 53.0522C100.216 55.4522 99.0157 56.8522 98.0157 58.2522C96.4157 60.6522 93.9157 61.3522 91.4157 61.8522C90.9157 61.9522 90.1157 61.1522 89.7157 60.5522C89.5157 60.1522 89.8157 59.4522 89.9157 58.8522C89.9157 58.6522 90.1157 58.5522 90.3157 58.4522C93.3157 56.7522 96.3157 54.9522 99.6157 53.0522Z" fill="#252525"/>
<path fill-rule="evenodd" clip-rule="evenodd" d="M37.0159 61.5522C33.1159 62.5522 29.8159 61.2522 26.7159 59.2522C26.1159 58.8522 25.5159 58.0522 25.4159 57.4522C25.3159 56.8522 26.2159 55.6522 26.4159 55.7522C30.2159 56.7522 33.9159 57.7522 37.0159 60.3522C37.1159 60.4522 37.0159 60.7522 37.0159 61.5522Z" fill="#252525"/>
<path fill-rule="evenodd" clip-rule="evenodd" d="M11.8157 43.1522C12.0157 43.1522 12.7157 43.1522 13.1157 43.5522C15.4157 45.6522 17.7157 47.8522 19.9157 50.0522C20.2157 50.3522 20.1157 51.2522 19.8157 51.5522C19.5157 51.8522 18.7157 52.0522 18.2157 51.8522C15.0157 50.5522 12.6157 48.2522 10.5157 45.4522C10.0157 44.7522 10.6157 43.1522 11.8157 43.1522Z" fill="#252525"/>
<path fill-rule="evenodd" clip-rule="evenodd" d="M7.71554 38.4522C5.71554 37.6522 4.81554 37.4522 4.21554 36.9522C1.81554 34.6522 0.915542 31.6522 0.0155417 28.5522C-0.0844583 28.1522 0.315542 27.3522 0.715542 27.0522C1.11554 26.8522 1.91554 26.8522 2.31554 27.1522C2.91554 27.5522 3.51554 28.1522 3.81554 28.8522C5.11554 31.5522 6.11554 34.3522 7.71554 38.4522Z" fill="#252525"/>
</svg>
