<svg width="292" height="408" viewBox="0 0 292 408" fill="none" xmlns="http://www.w3.org/2000/svg">
<path d="M259.252 68.1105V20.4H281.797C287.434 20.4 292 15.8355 292 10.2C292 4.5645 287.434 0 281.797 0H10.2028C4.56574 0 0 4.5645 0 10.2C0 15.8355 4.56574 20.4 10.2028 20.4H32.7509V68.1105C32.8975 97.3717 44.8316 125.339 65.8493 145.701L131.106 208.775L68.7252 267.463C47.0475 287.927 34.7691 316.423 34.7914 346.233V387.6H10.2028C4.56574 387.6 0 392.164 0 397.8C0 403.435 4.56574 408 10.2028 408H281.797C287.434 408 292 403.435 292 397.8C292 392.164 287.434 387.6 281.797 387.6H260.273V346.991C260.218 316.659 247.443 287.739 225.06 267.266L160.92 208.679L226.167 145.701C247.181 125.336 259.109 97.3717 259.252 68.1105ZM239.867 346.991V387.6H55.197V346.233C55.1842 322.049 65.1542 298.936 82.7444 282.336L146.158 222.79L211.328 282.317C229.476 298.93 239.832 322.39 239.867 346.991ZM146.002 194.692L80.0471 131.051C62.9861 114.533 53.2935 91.8478 53.1564 68.1105V20.4H238.847V68.1105C238.706 91.8478 229.014 114.533 211.953 131.051L146.002 194.692Z" fill="#C4C4C4" fill-opacity="0.1"/>
</svg>
