<svg width="111" height="129" viewBox="0 0 111 129" fill="none" xmlns="http://www.w3.org/2000/svg">
<path d="M0.88 98.082V86.642H5.344C6.85867 86.642 8.07467 87.1914 8.992 88.29C9.90933 89.378 10.368 90.7754 10.368 92.482C10.368 94.4554 9.76 95.954 8.544 96.978C7.65867 97.714 6.528 98.082 5.152 98.082H0.88ZM3.2 96.082H4.992C6.048 96.082 6.816 95.778 7.296 95.17C7.776 94.5514 8.016 93.6554 8.016 92.482C8.016 91.3087 7.76 90.3754 7.248 89.682C6.74667 88.978 6.016 88.626 5.056 88.626H3.2V96.082ZM13.83 89.874V91.186H13.878C14.134 90.706 14.4167 90.354 14.726 90.13C15.0353 89.8954 15.4247 89.778 15.894 89.778C16.118 89.778 16.2887 89.7994 16.406 89.842V91.746H16.358C15.622 91.6714 15.03 91.8314 14.582 92.226C14.134 92.6207 13.91 93.2394 13.91 94.082V98.082H11.734V89.874H13.83ZM22.557 98.082C22.4503 97.9434 22.365 97.6394 22.301 97.17H22.269C22.0343 97.522 21.7357 97.794 21.373 97.986C21.0103 98.178 20.5037 98.274 19.853 98.274C18.989 98.274 18.2957 98.0554 17.773 97.618C17.2503 97.1807 16.989 96.562 16.989 95.762C16.989 94.93 17.277 94.322 17.853 93.938C18.429 93.5434 19.2397 93.2714 20.285 93.122C21.053 93.0154 21.5757 92.9087 21.853 92.802C22.1303 92.6847 22.269 92.482 22.269 92.194C22.269 91.8954 22.1517 91.6607 21.917 91.49C21.6823 91.3087 21.341 91.218 20.893 91.218C19.901 91.218 19.373 91.602 19.309 92.37H17.373C17.405 91.5914 17.7197 90.946 18.317 90.434C18.9143 89.922 19.7783 89.666 20.909 89.666C23.213 89.666 24.365 90.674 24.365 92.69V96.866C24.365 97.4847 24.461 97.8634 24.653 98.002V98.082H22.557ZM20.381 96.754C20.9783 96.754 21.4477 96.5994 21.789 96.29C22.141 95.9807 22.317 95.6127 22.317 95.186V93.954C22.0823 94.0927 21.5757 94.2527 20.797 94.434C20.1783 94.5727 19.741 94.7327 19.485 94.914C19.229 95.0847 19.101 95.3514 19.101 95.714C19.101 96.4074 19.5277 96.754 20.381 96.754ZM29.6444 100.882C28.535 100.882 27.6444 100.658 26.9724 100.21C26.311 99.762 25.9217 99.1327 25.8044 98.322H27.9644C28.1777 98.93 28.727 99.234 29.6124 99.234C30.8284 99.234 31.4364 98.6634 31.4364 97.522V96.626H31.3884C30.823 97.266 30.1084 97.586 29.2444 97.586C28.2737 97.586 27.4257 97.2287 26.7004 96.514C25.9857 95.7994 25.6284 94.85 25.6284 93.666C25.6284 92.45 25.959 91.4794 26.6204 90.754C27.2817 90.018 28.135 89.65 29.1804 89.65C30.1724 89.65 30.9297 90.0127 31.4524 90.738H31.4844V89.874H33.5804V97.458C33.5804 98.5247 33.255 99.3567 32.6044 99.954C31.943 100.573 30.9564 100.882 29.6444 100.882ZM29.6124 95.842C30.263 95.842 30.7484 95.634 31.0684 95.218C31.3884 94.802 31.5484 94.2687 31.5484 93.618C31.5484 92.978 31.3777 92.45 31.0364 92.034C30.7057 91.6074 30.2257 91.394 29.5964 91.394C29.0417 91.394 28.5937 91.5967 28.2524 92.002C27.9217 92.4074 27.7564 92.9514 27.7564 93.634C27.7564 94.3274 27.9217 94.8714 28.2524 95.266C28.5937 95.65 29.047 95.842 29.6124 95.842ZM43.397 98.082C43.2903 97.9434 43.205 97.6394 43.141 97.17H43.109C42.8743 97.522 42.5757 97.794 42.213 97.986C41.8503 98.178 41.3437 98.274 40.693 98.274C39.829 98.274 39.1357 98.0554 38.613 97.618C38.0903 97.1807 37.829 96.562 37.829 95.762C37.829 94.93 38.117 94.322 38.693 93.938C39.269 93.5434 40.0797 93.2714 41.125 93.122C41.893 93.0154 42.4157 92.9087 42.693 92.802C42.9703 92.6847 43.109 92.482 43.109 92.194C43.109 91.8954 42.9917 91.6607 42.757 91.49C42.5223 91.3087 42.181 91.218 41.733 91.218C40.741 91.218 40.213 91.602 40.149 92.37H38.213C38.245 91.5914 38.5597 90.946 39.157 90.434C39.7543 89.922 40.6183 89.666 41.749 89.666C44.053 89.666 45.205 90.674 45.205 92.69V96.866C45.205 97.4847 45.301 97.8634 45.493 98.002V98.082H43.397ZM41.221 96.754C41.8183 96.754 42.2877 96.5994 42.629 96.29C42.981 95.9807 43.157 95.6127 43.157 95.186V93.954C42.9223 94.0927 42.4157 94.2527 41.637 94.434C41.0183 94.5727 40.581 94.7327 40.325 94.914C40.069 95.0847 39.941 95.3514 39.941 95.714C39.941 96.4074 40.3677 96.754 41.221 96.754ZM50.0119 98.082V86.642H55.0359C56.3372 86.642 57.3345 86.9994 58.0279 87.714C58.7105 88.418 59.0519 89.2874 59.0519 90.322C59.0519 91.41 58.7105 92.2847 58.0279 92.946C57.3452 93.6074 56.4119 93.938 55.2279 93.938H52.4119V98.082H50.0119ZM52.4119 88.658V92.05H54.8119C55.4092 92.05 55.8679 91.9007 56.1879 91.602C56.5079 91.2927 56.6679 90.8714 56.6679 90.338C56.6679 89.8047 56.5079 89.394 56.1879 89.106C55.8679 88.8074 55.4199 88.658 54.8439 88.658H52.4119ZM62.4794 86.642V90.946H62.5274C62.8367 90.498 63.1727 90.1727 63.5354 89.97C63.9087 89.7567 64.3674 89.65 64.9114 89.65C65.754 89.65 66.4367 89.938 66.9594 90.514C67.482 91.0794 67.7434 91.8154 67.7434 92.722V98.082H65.5674V93.042C65.5674 92.594 65.4394 92.2314 65.1834 91.954C64.938 91.6767 64.5914 91.538 64.1434 91.538C63.6634 91.538 63.2634 91.714 62.9434 92.066C62.634 92.418 62.4794 92.8714 62.4794 93.426V98.082H60.3034V86.642H62.4794ZM76.3406 97.09C75.5406 97.9114 74.5113 98.322 73.2526 98.322C71.994 98.322 70.9646 97.9114 70.1646 97.09C69.3646 96.258 68.9646 95.2234 68.9646 93.986C68.9646 92.7487 69.3646 91.7194 70.1646 90.898C70.9646 90.066 71.994 89.65 73.2526 89.65C74.5113 89.65 75.5406 90.066 76.3406 90.898C77.1406 91.7194 77.5406 92.7487 77.5406 93.986C77.5406 95.2234 77.1406 96.258 76.3406 97.09ZM73.2526 96.658C73.9033 96.658 74.41 96.418 74.7726 95.938C75.146 95.4474 75.3326 94.7967 75.3326 93.986C75.3326 93.1754 75.146 92.5247 74.7726 92.034C74.41 91.5434 73.9033 91.298 73.2526 91.298C72.5913 91.298 72.0793 91.5434 71.7166 92.034C71.354 92.514 71.1726 93.1647 71.1726 93.986C71.1726 94.7967 71.354 95.4474 71.7166 95.938C72.0793 96.418 72.5913 96.658 73.2526 96.658ZM78.1959 91.314V89.874H79.3319V87.314H81.4599V89.874H82.8679V91.314H81.4599V95.666C81.4599 96.21 81.7319 96.482 82.2759 96.482L82.9159 96.466V98.066C82.5852 98.0874 82.1319 98.098 81.5559 98.098C80.9265 98.098 80.3985 97.9487 79.9719 97.65C79.5452 97.3407 79.3319 96.834 79.3319 96.13V91.314H78.1959ZM91.1663 97.09C90.3663 97.9114 89.3369 98.322 88.0783 98.322C86.8196 98.322 85.7903 97.9114 84.9903 97.09C84.1903 96.258 83.7903 95.2234 83.7903 93.986C83.7903 92.7487 84.1903 91.7194 84.9903 90.898C85.7903 90.066 86.8196 89.65 88.0783 89.65C89.3369 89.65 90.3663 90.066 91.1663 90.898C91.9663 91.7194 92.3663 92.7487 92.3663 93.986C92.3663 95.2234 91.9663 96.258 91.1663 97.09ZM88.0783 96.658C88.7289 96.658 89.2356 96.418 89.5983 95.938C89.9716 95.4474 90.1583 94.7967 90.1583 93.986C90.1583 93.1754 89.9716 92.5247 89.5983 92.034C89.2356 91.5434 88.7289 91.298 88.0783 91.298C87.4169 91.298 86.9049 91.5434 86.5423 92.034C86.1796 92.514 85.9983 93.1647 85.9983 93.986C85.9983 94.7967 86.1796 95.4474 86.5423 95.938C86.9049 96.418 87.4169 96.658 88.0783 96.658ZM103.601 97.09C102.801 97.9114 101.772 98.322 100.513 98.322C99.2546 98.322 98.2252 97.9114 97.4252 97.09C96.6252 96.258 96.2252 95.2234 96.2252 93.986C96.2252 92.7487 96.6252 91.7194 97.4252 90.898C98.2252 90.066 99.2546 89.65 100.513 89.65C101.772 89.65 102.801 90.066 103.601 90.898C104.401 91.7194 104.801 92.7487 104.801 93.986C104.801 95.2234 104.401 96.258 103.601 97.09ZM100.513 96.658C101.164 96.658 101.671 96.418 102.033 95.938C102.407 95.4474 102.593 94.7967 102.593 93.986C102.593 93.1754 102.407 92.5247 102.033 92.034C101.671 91.5434 101.164 91.298 100.513 91.298C99.8519 91.298 99.3399 91.5434 98.9772 92.034C98.6146 92.514 98.4332 93.1647 98.4332 93.986C98.4332 94.7967 98.6146 95.4474 98.9772 95.938C99.3399 96.418 99.8519 96.658 100.513 96.658ZM108.189 89.874V91.186H108.237C108.493 90.706 108.775 90.354 109.085 90.13C109.394 89.8954 109.783 89.778 110.253 89.778C110.477 89.778 110.647 89.7994 110.765 89.842V91.746H110.717C109.981 91.6714 109.389 91.8314 108.941 92.226C108.493 92.6207 108.269 93.2394 108.269 94.082V98.082H106.093V89.874H108.189Z" fill="#B0B0B0"/>
<path d="M28.88 122V110.56H34C35.2267 110.56 36.1493 110.837 36.768 111.392C37.376 111.936 37.68 112.651 37.68 113.536C37.68 114.656 37.0827 115.419 35.888 115.824V115.872C36.528 116.064 37.04 116.411 37.424 116.912C37.8187 117.413 38.016 118.011 38.016 118.704C38.016 119.717 37.68 120.512 37.008 121.088C36.3147 121.696 35.3547 122 34.128 122H28.88ZM31.2 116.88V120.08H33.872C34.4267 120.08 34.864 119.941 35.184 119.664C35.504 119.376 35.664 118.997 35.664 118.528C35.664 118.005 35.488 117.6 35.136 117.312C34.7947 117.024 34.352 116.88 33.808 116.88H31.2ZM31.2 115.168H33.712C34.224 115.168 34.6347 115.051 34.944 114.816C35.2533 114.571 35.408 114.229 35.408 113.792C35.408 113.365 35.2587 113.035 34.96 112.8C34.672 112.565 34.272 112.448 33.76 112.448H31.2V115.168ZM41.58 113.792V115.104H41.628C41.884 114.624 42.1667 114.272 42.476 114.048C42.7853 113.813 43.1747 113.696 43.644 113.696C43.868 113.696 44.0387 113.717 44.156 113.76V115.664H44.108C43.372 115.589 42.78 115.749 42.332 116.144C41.884 116.539 41.66 117.157 41.66 118V122H39.484V113.792H41.58ZM52.115 121.008C51.315 121.829 50.2857 122.24 49.027 122.24C47.7683 122.24 46.739 121.829 45.939 121.008C45.139 120.176 44.739 119.141 44.739 117.904C44.739 116.667 45.139 115.637 45.939 114.816C46.739 113.984 47.7683 113.568 49.027 113.568C50.2857 113.568 51.315 113.984 52.115 114.816C52.915 115.637 53.315 116.667 53.315 117.904C53.315 119.141 52.915 120.176 52.115 121.008ZM49.027 120.576C49.6777 120.576 50.1843 120.336 50.547 119.856C50.9203 119.365 51.107 118.715 51.107 117.904C51.107 117.093 50.9203 116.443 50.547 115.952C50.1843 115.461 49.6777 115.216 49.027 115.216C48.3657 115.216 47.8537 115.461 47.491 115.952C47.1283 116.432 46.947 117.083 46.947 117.904C46.947 118.715 47.1283 119.365 47.491 119.856C47.8537 120.336 48.3657 120.576 49.027 120.576ZM56.1321 122L53.7321 113.792H55.8921L56.8841 117.6L57.2521 119.136H57.2841C57.4015 118.549 57.5188 118.032 57.6361 117.584L58.6601 113.792H60.5161L61.5881 117.584L61.9721 119.136H62.0041C62.1321 118.56 62.2548 118.048 62.3721 117.6L63.4121 113.792H65.5241L63.0761 122H61.0921L60.0041 117.968L59.6361 116.544H59.6041C59.4655 117.056 59.3375 117.531 59.2201 117.968L58.1001 122H56.1321ZM69.8239 122.24C68.6505 122.24 67.7332 121.984 67.0719 121.472C66.4105 120.949 66.0479 120.24 65.9839 119.344H67.9999C68.1385 120.251 68.7359 120.704 69.7919 120.704C70.2719 120.704 70.6399 120.619 70.8959 120.448C71.1625 120.277 71.2959 120.048 71.2959 119.76C71.2959 119.653 71.2745 119.557 71.2319 119.472C71.1999 119.387 71.1359 119.312 71.0399 119.248C70.9545 119.173 70.8745 119.115 70.7999 119.072C70.7359 119.029 70.6185 118.987 70.4479 118.944C70.2772 118.901 70.1439 118.869 70.0479 118.848C69.9625 118.827 69.8079 118.8 69.5839 118.768C69.3705 118.725 69.2212 118.693 69.1359 118.672C68.6879 118.587 68.3199 118.501 68.0319 118.416C67.7545 118.32 67.4612 118.187 67.1519 118.016C66.8425 117.835 66.6079 117.595 66.4479 117.296C66.2985 116.987 66.2239 116.619 66.2239 116.192C66.2239 115.339 66.5332 114.688 67.1519 114.24C67.7812 113.792 68.5865 113.568 69.5679 113.568C70.6239 113.568 71.4505 113.813 72.0479 114.304C72.6559 114.784 73.0025 115.445 73.0879 116.288H71.1199C71.0345 115.488 70.5065 115.088 69.5359 115.088C69.0985 115.088 68.7519 115.168 68.4959 115.328C68.2505 115.488 68.1279 115.712 68.1279 116C68.1279 116.096 68.1439 116.187 68.1759 116.272C68.2185 116.347 68.2825 116.416 68.3679 116.48C68.4639 116.533 68.5545 116.581 68.6399 116.624C68.7252 116.656 68.8479 116.693 69.0079 116.736C69.1679 116.768 69.3065 116.8 69.4239 116.832C69.5412 116.853 69.7012 116.885 69.9039 116.928C70.1065 116.96 70.2665 116.987 70.3839 117.008C70.7252 117.083 71.0025 117.152 71.2159 117.216C71.4399 117.269 71.6959 117.365 71.9839 117.504C72.2719 117.632 72.4959 117.781 72.6559 117.952C72.8265 118.112 72.9705 118.336 73.0879 118.624C73.2159 118.901 73.2799 119.227 73.2799 119.6C73.2799 120.411 72.9599 121.056 72.3199 121.536C71.6905 122.005 70.8585 122.24 69.8239 122.24ZM78.4756 122.24C77.153 122.24 76.113 121.835 75.3556 121.024C74.5983 120.203 74.2196 119.157 74.2196 117.888C74.2196 116.661 74.5983 115.637 75.3556 114.816C76.113 113.984 77.0836 113.568 78.2676 113.568C79.5583 113.568 80.5556 114.016 81.2596 114.912C81.9636 115.808 82.3156 117.008 82.3156 118.512H76.3636C76.449 119.163 76.6676 119.669 77.0196 120.032C77.3716 120.384 77.8516 120.56 78.4596 120.56C79.2596 120.56 79.7876 120.224 80.0436 119.552H82.1876C82.0276 120.32 81.6223 120.96 80.9716 121.472C80.321 121.984 79.489 122.24 78.4756 122.24ZM78.2996 115.248C77.2436 115.248 76.609 115.835 76.3956 117.008H80.0436C80.0116 116.485 79.8356 116.064 79.5156 115.744C79.1956 115.413 78.7903 115.248 78.2996 115.248Z" fill="#9043C3"/>
<path d="M28 125.2H82.6196V126H28V125.2Z" fill="#9043C3"/>
<path d="M52.0985 32.0697C56.6638 32.0697 60.3787 28.3554 60.3787 23.79C60.3787 19.224 56.6638 15.5098 52.0985 15.5098C47.5331 15.5098 43.8188 19.224 43.8188 23.79C43.8188 28.3554 47.5331 32.0697 52.0985 32.0697ZM52.0985 20.366C53.9866 20.366 55.5225 21.9019 55.5225 23.79C55.5225 25.6775 53.9866 27.2134 52.0985 27.2134C50.211 27.2134 48.6751 25.6775 48.6751 23.79C48.6751 21.9019 50.211 20.366 52.0985 20.366Z" fill="#C4C4C4"/>
<path d="M94.4135 0H17.5864C15.9177 0 14.5601 1.3576 14.5601 3.0263V68.0556C14.5601 69.7243 15.9177 71.0819 17.5864 71.0819H94.4135C96.0822 71.0819 97.4398 69.7243 97.4398 68.0556V3.0263C97.4398 1.3576 96.0822 0 94.4135 0ZM92.5836 4.85624V43.2863L77.3105 28.0125C76.3146 27.0185 74.6952 27.0191 73.6999 28.0144L52.0992 49.6152L38.3012 35.8179C37.8188 35.3348 37.177 35.0686 36.4941 35.0686C35.8118 35.0686 35.1706 35.3342 34.6882 35.8166L19.4163 51.0885V4.85624H92.5836ZM19.4163 66.2257V57.9562L36.4941 40.8784L50.2913 54.6757C50.7744 55.1588 51.4162 55.4256 52.0992 55.4256C52.7808 55.4256 53.4226 55.1594 53.9044 54.6769L75.5058 33.0755L92.5842 50.1539V66.2257H19.4163Z" fill="#C4C4C4"/>
</svg>
