<svg width="103" height="75" viewBox="0 0 103 75" fill="none" xmlns="http://www.w3.org/2000/svg">
<path d="M32.9049 22.4827C35.7952 22.4827 38.3582 23.6304 40.2668 25.5431C42.1755 27.4558 43.3206 30.0243 43.3206 32.9206C43.3206 35.817 42.1755 38.3855 40.2668 40.2982C38.3582 42.2109 35.7952 43.3585 32.9049 43.3585V40.2982C34.9226 40.2982 36.7768 39.4785 38.0855 38.1669C39.3943 36.8553 40.2123 34.9973 40.2123 32.9753C40.2123 30.9533 39.3943 29.0952 38.0855 27.7837C36.7768 26.4721 34.9226 25.6524 32.9049 25.6524V22.4827ZM32.9049 43.3039C30.0147 43.3039 27.4517 42.1562 25.5431 40.2435C23.6344 38.3308 22.4893 35.7624 22.4893 32.866C22.4893 29.9696 23.6344 27.4011 25.5431 25.4884C27.4517 23.5757 30.0147 22.4281 32.9049 22.4281V25.4884C30.8872 25.4884 29.0331 26.3082 27.7244 27.6197C26.4156 28.9313 25.5976 30.7893 25.5976 32.8113C25.5976 34.8333 26.4156 36.6914 27.7244 38.0029C29.0331 39.3145 30.8872 40.1342 32.9049 40.1342V43.3039Z" fill="#9043C3"/>
<path d="M43.3212 22.4281C41.9579 21.0619 40.3219 19.9689 38.5223 19.2038C36.7773 18.4934 34.8686 18.1109 32.9055 18.1109V14.0122C35.414 14.0122 37.8679 14.504 40.1038 15.4331C42.3941 16.4167 44.4664 17.783 46.2114 19.5317C47.9564 21.2805 49.3197 23.3571 50.3013 25.6524C51.2284 27.8929 51.7192 30.2975 51.7192 32.866C51.7192 35.2705 51.2829 37.5658 50.4649 39.697C49.756 40.4075 49.0471 41.1179 48.3382 41.8283C45.1207 44.9433 41.7943 48.0036 38.3587 50.9547C36.6137 51.5011 34.8141 51.7744 32.9055 51.7744V47.6757C34.9232 47.6757 36.8318 47.2932 38.5223 46.5828C40.3219 45.8177 41.9033 44.7247 43.3212 43.3585C45.9933 40.6807 47.6292 37.0193 47.6292 32.9206C47.6292 30.8986 47.2475 28.9859 46.5386 27.2918C45.7751 25.4338 44.6845 23.849 43.3212 22.4281ZM32.9055 18.1109C30.8878 18.1109 28.9791 18.4934 27.2886 19.2038C25.4891 19.9689 23.9076 21.0619 22.4898 22.4281C21.1265 23.7943 20.0358 25.4338 19.2724 27.2372C18.5635 28.9859 18.1817 30.8986 18.1817 32.866C18.1817 34.888 18.5635 36.8007 19.2724 38.4948C20.0358 40.2982 21.1265 41.883 22.4898 43.3039C23.8531 44.6701 25.4891 45.763 27.2886 46.5281C29.0337 47.2385 30.9423 47.6211 32.9055 47.6211V51.7197C30.397 51.7197 27.943 51.2279 25.7072 50.2989C23.4168 49.3152 21.3446 47.949 19.5996 46.2002C17.8545 44.4515 16.4912 42.3748 15.5096 40.0796C14.5826 37.839 14.0918 35.4345 14.0918 32.866C14.0918 30.3521 14.5826 27.8929 15.5096 25.6524C16.4912 23.3571 17.8545 21.2805 19.5996 19.5317C21.3446 17.783 23.4168 16.4167 25.7072 15.4331C27.943 14.504 30.3425 14.0122 32.9055 14.0122V18.1109Z" fill="#9043C3"/>
<path d="M26.852 63.961C26.9066 64.3982 27.1247 64.7261 27.3428 64.9993C27.5064 62.4855 28.4335 60.0809 30.0694 58.2229L29.8513 56.7474C29.6877 55.8183 28.9788 55.1626 28.1063 55.0533C26.7975 54.78 25.4887 54.3428 24.2345 53.851C22.9257 53.3045 21.726 52.6487 20.5263 51.8836C19.7628 51.3918 18.7812 51.4465 18.0723 52.0476L14.4186 54.7254C14.2005 54.4521 13.9824 54.1789 13.7643 53.9603C13.4916 53.6324 13.2189 53.4138 13.0553 53.1952C12.8372 52.9766 12.5645 52.7034 12.2373 52.3755C12.0192 52.1569 11.7466 51.9383 11.3648 51.6104C11.3103 51.5558 11.2558 51.5011 11.2012 51.4465L13.9824 47.5118C14.5277 46.7467 14.4732 45.763 13.9278 45.0526C13.2189 43.9049 12.5645 42.7573 12.0737 41.5004C11.5284 40.2435 11.1467 38.8773 10.8195 37.5111L8.8018 37.9483L10.8195 37.5111C10.6014 36.582 9.83792 35.9263 8.9654 35.8716L4.49374 35.2705V35.2158C4.49374 34.9426 4.54827 34.6147 4.54827 34.1775C4.54827 33.6857 4.54827 33.3578 4.54827 33.1392C4.54827 32.8659 4.54827 32.4834 4.49374 31.9916C4.49374 31.4997 4.43921 31.1172 4.43921 30.8439C4.43921 30.7893 4.43921 30.68 4.43921 30.6253L9.129 29.8056L8.8018 27.7836L9.129 29.8056C10.056 29.6417 10.7104 28.9312 10.8195 28.0569C11.0922 26.7453 11.5284 25.4337 12.0192 24.1768C12.5645 22.8652 13.2189 21.663 13.9824 20.4607C14.4732 19.6956 14.4186 18.712 13.8188 18.0015L11.1467 14.3401C11.4194 14.1215 11.6375 13.9029 11.9102 13.6843C12.2373 13.411 12.4555 13.1378 12.6736 12.9738C12.8917 12.7553 13.1644 12.482 13.4916 12.1541C13.7097 11.9355 13.9279 11.6623 14.255 11.2797C14.3096 11.2251 14.3641 11.1704 14.4186 11.1158L18.2904 13.8482C18.9994 14.3947 19.981 14.3401 20.6899 13.8482C21.8351 13.0831 23.0348 12.482 24.289 11.9355C25.5433 11.389 26.9066 11.0065 28.2699 10.6786L27.8336 8.65661L28.2699 10.6786C29.1969 10.46 29.8513 9.69493 29.9058 8.82055L30.5602 4.39402H30.6148C30.8874 4.39402 31.2146 4.44867 31.6509 4.44867C32.1417 4.44867 32.4689 4.44867 32.687 4.44867C32.9597 4.44867 33.3414 4.44867 33.8322 4.39402C34.323 4.39402 34.7047 4.33937 34.9774 4.33937C35.0319 4.33937 35.141 4.33937 35.1955 4.33937L36.0135 9.03915C36.1771 9.96817 36.886 10.624 37.7585 10.7333C39.0673 11.0065 40.3761 11.4437 41.6303 11.9355C42.9391 12.482 44.1388 13.1378 45.3385 13.9029C46.102 14.3947 47.1381 14.3401 47.7925 13.7389L51.5007 11.1158C51.5552 11.1704 51.6098 11.2251 51.6643 11.2797C51.9369 11.6076 52.2096 11.9355 52.4277 12.1541C52.7004 12.482 52.9731 12.7553 53.2457 12.9738C53.4639 13.1924 53.682 13.411 54.0092 13.6843C54.2818 13.9029 54.5 14.1215 54.7726 14.3401L52.046 18.1108L53.682 19.3131L52.046 18.1108C51.5007 18.8212 51.5552 19.8049 52.046 20.5154C52.8095 21.663 53.4093 22.8652 53.9546 24.1768C54.5 25.4884 54.8817 26.7999 55.2089 28.1662L57.2266 27.729L55.2089 28.1662C55.3725 29.0405 56.1359 29.6963 56.9539 29.8056L58.9171 30.1335C59.7896 28.9312 60.6621 27.6743 61.4256 26.4174L58.808 25.9802C58.4808 24.8326 58.0991 23.685 57.6628 22.592C57.2266 21.499 56.6813 20.4061 56.0814 19.4224L59.0262 15.3237C59.0807 15.2691 59.0807 15.2691 59.1352 15.2144C59.7896 14.2854 59.626 13.0285 58.699 12.3727L57.4993 14.0122L58.699 12.3727C58.5899 12.2634 58.3718 12.0995 58.0446 11.8809C57.7719 11.6623 57.5538 11.4983 57.3357 11.2797C57.1175 11.1158 56.8994 10.8972 56.6813 10.7333C56.5177 10.5693 56.2995 10.3507 56.0269 10.0775C55.7542 9.80423 55.5361 9.58563 55.318 9.36704C55.0453 9.0938 54.8272 8.82055 54.6636 8.65661C54.5 8.43801 54.2818 8.16477 54.0637 7.89153C53.9001 7.67293 53.7365 7.45434 53.5729 7.23574C53.5729 7.1811 53.5184 7.1811 53.5184 7.12645C52.864 6.19742 51.6097 5.97883 50.6827 6.63461L46.3201 9.74958C45.284 9.14845 44.2479 8.65661 43.1572 8.16477C42.0666 7.72758 40.9759 7.34504 39.8307 7.01715L38.9582 1.82553C38.9582 1.77089 38.9582 1.77089 38.9582 1.71624C38.7401 0.623265 37.704 -0.141815 36.6133 0.0221304C36.1225 0.131428 35.8499 0.186076 35.5772 0.186076C35.3591 0.186076 35.0319 0.240725 34.5956 0.295373C34.2139 0.350022 33.8867 0.350022 33.6141 0.350022C33.3959 0.350022 33.0687 0.350022 32.6325 0.350022C32.1962 0.350022 31.869 0.350022 31.7054 0.350022C31.4873 0.350022 31.2146 0.350022 30.8329 0.295373C30.4512 0.240725 30.1785 0.240725 29.9058 0.186076C29.6332 0.131428 29.4151 0.131428 29.2515 0.131428C29.1969 0.131428 29.1424 0.131428 29.0879 0.076779C27.9972 -0.0871668 26.9066 0.677914 26.743 1.77089L25.925 6.9625C24.7798 7.29039 23.6892 7.67293 22.5985 8.11012C21.5079 8.54731 20.4172 9.0938 19.4356 9.69493L15.2366 6.68926C15.1821 6.63461 15.1276 6.57996 15.073 6.57996C14.146 5.92418 12.8917 6.14277 12.2373 7.0718L13.9278 8.27407L12.2919 7.12645C12.0737 7.39969 11.9102 7.67293 11.7466 7.89153C11.5284 8.16477 11.3103 8.43801 11.1467 8.65661C10.9831 8.82055 10.765 9.0938 10.4923 9.36704C10.3287 9.58563 10.1106 9.80423 9.78339 10.0775C9.45619 10.3507 9.29259 10.5693 9.129 10.7333C8.91087 10.9518 8.69274 11.1158 8.47461 11.2797C8.25648 11.4437 8.03835 11.6076 7.82022 11.8262C7.76569 11.8262 7.76569 11.8809 7.71115 11.8809C7.54756 11.9902 7.38396 12.1541 7.22036 12.2634C7.16583 12.3181 7.1113 12.3181 7.05677 12.3727C6.12971 13.0285 5.96612 14.3401 6.62051 15.2144L8.25648 14.0122L6.62051 15.2144L9.72885 19.477C9.129 20.5154 8.63821 21.5537 8.14741 22.6466C7.71115 23.7396 7.32943 24.8326 7.00223 25.9802L1.82165 26.8546C1.76712 26.8546 1.76712 26.8546 1.71259 26.8546C0.62194 27.0732 -0.141514 28.1115 0.0220834 29.2045C0.0766158 29.587 0.131148 29.9149 0.185681 30.1335C0.185681 30.3521 0.240213 30.68 0.294745 31.1172C0.349278 31.4997 0.349278 31.8276 0.349278 32.1009C0.349278 32.3194 0.349278 32.6473 0.349278 33.0845C0.349278 33.5217 0.349278 33.8496 0.349278 34.0136C0.349278 34.2321 0.349278 34.5054 0.294745 34.8879C0.240213 35.2705 0.240213 35.5437 0.185681 35.817C0.131148 36.0902 0.131148 36.3088 0.131148 36.4727C0.131148 36.5274 0.131148 36.582 0.0766158 36.6367C-0.0869815 37.7297 0.676472 38.8226 1.76712 38.9866L6.9477 39.8063C7.2749 40.9539 7.60209 42.0469 8.09288 43.1399C8.52914 44.2328 9.07446 45.3258 9.67432 46.3095L6.67504 50.5721C6.62051 50.6267 6.56597 50.6814 6.56597 50.736C5.91158 51.6651 6.12971 52.922 7.05677 53.5777L8.25648 51.8836L7.16583 53.5777C7.43849 53.7963 7.71115 53.9603 7.92928 54.1242C8.20195 54.3428 8.47461 54.5614 8.69274 54.7254C8.85634 54.8893 9.129 55.1079 9.40166 55.3812C9.61979 55.5451 9.83792 55.7637 10.1106 56.0916C10.3832 56.3648 10.6014 56.5834 10.765 56.7474C10.9831 56.966 11.1467 57.1846 11.3103 57.4031C11.4739 57.6217 11.6375 57.8403 11.8556 58.0589C11.8556 58.1136 11.9102 58.1136 11.9102 58.1682C12.0192 58.3322 12.1828 58.4961 12.2919 58.6601C12.3464 58.7147 12.3464 58.7694 12.4009 58.824C13.0553 59.753 14.3641 59.917 15.2366 59.2612L14.0369 57.6217L15.2366 59.2612L19.4902 56.1462C20.5263 56.7474 21.5624 57.2392 22.653 57.731C23.7437 58.1682 24.8343 58.5508 25.9795 58.8787L26.852 63.961Z" fill="#9043C3"/>
<path d="M65.6791 24.45L66.7152 24.8872L65.6791 24.45V21.3897C65.8972 20.2967 65.9518 19.2584 66.0063 18.2747C66.2244 14.504 66.4425 10.8425 71.2414 6.03346C74.4043 2.86385 80.621 2.42666 84.929 2.09877C85.3653 2.04412 85.747 2.04412 86.2924 1.98947C87.4375 1.88017 88.4191 2.75455 88.4736 3.84752C88.5282 4.5033 88.2555 5.15909 87.7647 5.59628L78.2761 15.1598L79.6394 24.7233L89.1826 26.0895L98.7803 16.4167C99.5983 15.597 100.853 15.597 101.67 16.4167C102.107 16.8539 102.325 17.5097 102.27 18.1108C102.216 18.8759 102.161 19.477 102.161 20.1875C101.998 24.3407 101.725 29.6963 98.2349 33.1392C93.6542 37.7296 89.837 38.0029 86.0197 38.2761C83.8929 38.4401 81.8207 38.604 79.7485 39.8063C74.5679 42.7573 69.9872 46.1455 65.6246 49.9709V44.6154C69.3873 41.555 73.3682 38.768 77.7308 36.2541C80.621 34.6147 83.1295 34.3961 85.6925 34.2321C88.6918 34.0135 91.8001 33.7949 95.2902 30.2428C96.9807 28.5487 97.5806 25.8163 97.8532 23.0838L91.4184 29.5324C90.9821 30.0242 90.2732 30.3521 89.5643 30.2428L77.6217 28.5487C76.6946 28.494 75.8767 27.7836 75.7676 26.7999L77.7853 26.5267L75.7676 26.7999L74.0771 14.8319C73.9135 14.1761 74.1316 13.4657 74.6224 12.9738L81.0027 6.57995C78.2216 6.90784 75.4404 7.56362 74.0226 8.98449C70.3144 12.7006 70.1508 15.5423 69.9872 18.548C69.8781 20.7886 69.7145 23.0292 68.5693 25.707C68.5693 25.7616 68.5693 25.7616 68.5148 25.8163C67.7513 27.565 66.7697 29.3138 65.57 31.1172V24.45H65.6791ZM32.3598 58.824C33.0142 58.2775 33.7231 57.6764 34.432 57.0206C44.3024 48.6047 60.0077 35.1612 64.8611 24.1221L65.6791 24.45V31.0625C58.808 41.555 45.7202 52.7034 37.1041 60.0809C36.3952 60.6821 35.6863 61.2832 35.0319 61.8843C33.9958 62.9226 33.505 64.2889 33.505 65.6551C33.505 67.0213 33.9958 68.3875 35.0319 69.4258C36.068 70.4641 37.4313 70.956 38.7946 70.956C40.1579 70.956 41.4667 70.4641 42.5028 69.4258C47.9015 62.5401 53.1366 56.2555 58.7535 50.736C60.9893 48.5501 63.2797 46.4734 65.6791 44.5061V49.8616C64.3158 51.0639 62.9525 52.3208 61.5892 53.6324C56.0269 59.0426 50.9008 65.2179 45.6112 72.049C45.5566 72.1583 45.5021 72.2129 45.393 72.2676C43.5389 74.071 41.194 75 38.7946 75C36.3952 75 33.9958 74.071 32.1417 72.2676C30.2876 70.4095 29.415 68.005 29.415 65.6004C29.415 63.1959 30.3421 60.7914 32.1417 58.9333C32.1962 58.9333 32.2507 58.8787 32.3598 58.824ZM65.6791 24.45V21.3897C65.5155 22.2641 65.2974 23.0838 64.9156 24.0129C64.9156 24.0675 64.9156 24.0675 64.8611 24.1221L65.6791 24.45Z" fill="#9043C3"/>
<path fill-rule="evenodd" clip-rule="evenodd" d="M37.3768 63.5238C38.3039 62.5948 39.8853 62.5948 40.8124 63.5238C41.7394 64.4528 41.7394 66.0376 40.8124 66.9667C39.8853 67.8957 38.3039 67.8957 37.3768 66.9667C36.3952 66.0376 36.3952 64.5075 37.3768 63.5238Z" fill="#9043C3"/>
</svg>
